<?xml version="1.0" encoding="UTF-8" ?>
<!DOCTYPE svg PUBLIC "-//W3C//DTD SVG 1.1//EN" "http://www.w3.org/Graphics/SVG/1.1/DTD/svg11.dtd">
<svg width="256pt" height="256pt" viewBox="0 0 256 256" version="1.1" xmlns="http://www.w3.org/2000/svg">
<g id="#87898bff">
<path fill="#87898b" opacity="1.00" d=" M 112.90 8.94 C 116.96 7.31 120.65 12.09 121.73 15.47 C 119.66 13.89 118.05 11.74 115.80 10.41 C 112.45 10.16 109.26 11.47 106.03 12.17 C 88.59 16.30 71.16 20.47 53.72 24.61 C 54.44 25.66 55.18 26.70 55.83 27.80 C 55.80 28.15 55.76 28.85 55.74 29.20 C 53.83 27.20 51.75 25.36 49.38 23.93 C 70.62 19.25 91.73 13.93 112.90 8.94 Z" />
<path fill="#87898b" opacity="1.00" d=" M 146.75 30.24 C 147.59 32.29 148.32 34.37 149.05 36.46 C 142.95 38.18 136.80 39.79 130.55 40.87 C 130.51 42.68 130.49 44.50 130.49 46.31 C 134.59 44.93 139.69 44.80 142.17 40.69 C 142.86 40.97 144.23 41.51 144.91 41.78 C 144.53 43.19 143.65 44.05 142.28 44.34 C 116.15 51.52 90.10 59.01 63.97 66.18 C 64.46 65.11 64.95 64.03 65.43 62.94 C 64.68 61.47 63.94 59.99 63.20 58.51 C 56.54 60.61 49.58 61.57 42.92 63.69 C 43.16 64.38 43.64 65.77 43.87 66.46 C 43.38 66.36 42.41 66.18 41.92 66.08 C 41.20 63.00 40.52 59.90 39.63 56.86 C 40.40 55.76 41.55 55.04 42.87 54.78 C 48.43 53.21 54.17 52.37 59.66 50.55 C 61.31 50.21 60.57 48.16 60.71 47.01 C 60.57 44.56 60.12 42.08 59.06 39.86 C 57.76 38.71 56.05 40.07 54.62 40.15 C 51.99 38.53 48.90 39.60 46.16 40.26 C 41.50 41.52 36.84 42.78 32.11 43.78 C 33.93 47.35 35.57 51.04 36.35 54.99 C 35.67 54.56 34.98 54.14 34.30 53.71 C 30.17 55.36 25.87 56.50 21.62 57.79 C 19.21 52.73 18.37 44.30 24.90 42.09 C 32.71 40.52 40.35 37.97 48.16 36.57 C 51.81 38.61 56.43 38.01 59.52 35.26 C 61.69 43.43 63.86 51.62 65.76 59.86 C 65.88 60.64 66.11 62.22 66.23 63.00 C 72.02 62.41 77.53 60.45 83.14 59.01 C 98.55 54.92 113.91 50.66 129.26 46.35 L 129.07 45.14 C 128.61 41.96 128.04 38.79 127.17 35.69 C 133.63 33.63 140.44 32.79 146.75 30.24 Z" />
<path fill="#87898b" opacity="1.00" d=" M 159.05 36.86 C 163.79 39.69 170.54 41.18 172.40 47.05 C 173.57 53.39 171.86 59.87 172.82 66.25 C 173.23 64.70 173.54 63.12 173.74 61.53 C 176.18 60.57 177.56 58.45 177.95 55.91 C 177.74 59.96 177.34 63.99 177.21 68.04 C 177.54 68.26 178.20 68.70 178.53 68.92 C 185.03 72.64 191.63 76.23 198.14 79.96 C 203.04 82.76 206.76 87.50 208.29 92.93 C 208.70 96.54 208.72 100.19 208.77 103.82 C 202.93 106.46 196.69 108.02 190.60 109.98 C 184.30 111.86 178.14 114.22 171.70 115.59 C 171.60 113.66 171.50 111.73 171.40 109.81 C 178.65 106.34 186.14 103.47 193.62 100.56 C 196.83 99.07 200.77 97.84 202.41 94.40 C 203.25 92.84 202.77 91.03 202.76 89.36 C 198.50 89.09 194.20 89.11 190.01 90.01 C 183.74 91.30 177.33 91.62 171.00 92.48 C 169.02 92.85 167.10 92.21 165.28 91.51 C 165.61 90.47 165.94 89.44 166.27 88.41 C 165.47 86.96 164.67 85.52 163.89 84.07 C 173.03 81.64 182.60 81.43 192.01 81.61 C 187.91 79.09 183.79 76.27 178.92 75.58 C 170.86 74.22 163.00 71.98 155.00 70.35 C 150.94 69.76 148.39 66.26 145.69 63.56 C 147.00 63.13 148.32 62.68 149.63 62.23 C 148.97 58.75 150.10 54.35 146.93 51.87 C 146.35 53.05 145.78 54.24 145.21 55.43 C 142.76 56.28 140.30 57.10 137.83 57.91 L 137.82 56.55 C 137.61 56.88 137.20 57.54 137.00 57.87 C 136.25 57.38 134.74 56.41 133.98 55.92 C 133.98 55.66 133.99 55.15 133.99 54.90 C 134.99 54.30 136.00 53.70 137.01 53.10 C 135.34 52.65 133.65 52.25 131.95 51.95 C 135.37 51.30 139.03 50.08 142.37 51.71 C 144.07 52.57 145.92 51.88 147.67 51.60 C 148.49 52.08 149.32 52.57 150.14 53.06 C 151.59 52.80 153.03 52.53 154.48 52.26 C 153.94 51.73 152.87 50.67 152.33 50.15 C 155.51 49.14 158.62 47.93 161.67 46.57 C 162.01 48.12 162.36 49.67 162.71 51.23 C 158.78 52.14 154.87 53.15 150.95 54.13 C 150.46 56.81 150.10 59.52 149.88 62.25 C 154.41 61.94 158.98 61.92 163.47 62.78 C 164.62 62.83 166.65 63.61 166.94 61.86 C 170.21 54.06 166.21 45.56 160.87 39.77 C 160.28 39.95 159.70 40.12 159.11 40.28 C 158.86 39.75 158.35 38.69 158.10 38.16 C 158.34 37.84 158.82 37.19 159.05 36.86 M 135.74 55.87 C 137.76 56.05 139.78 56.17 141.81 56.25 C 141.79 52.40 136.78 52.93 135.74 55.87 Z" />
<path fill="#87898b" opacity="1.00" d=" M 147.46 45.68 C 150.79 43.71 153.96 41.07 157.93 40.52 C 158.91 41.37 160.67 42.13 159.69 43.70 C 156.54 45.21 153.09 45.93 149.78 46.99 C 148.99 46.58 148.21 46.14 147.46 45.68 Z" />
<path fill="#87898b" opacity="1.00" d=" M 174.48 40.66 L 176.80 40.63 C 180.38 43.07 178.12 49.54 182.44 50.69 C 182.01 52.80 181.10 54.74 179.48 56.19 C 179.08 54.21 178.67 52.23 178.28 50.24 L 178.21 49.72 C 178.21 46.29 176.86 43.11 174.48 40.66 Z" />
<path fill="#87898b" opacity="1.00" d=" M 39.91 66.35 C 41.70 66.57 43.82 66.29 45.18 67.75 C 47.28 69.45 47.42 72.27 47.53 74.76 L 48.96 74.92 C 47.29 75.56 45.54 75.98 43.77 76.22 C 41.77 73.24 40.99 69.71 39.91 66.35 Z" />
<path fill="#87898b" opacity="1.00" d=" M 47.72 73.29 C 51.85 70.34 56.15 67.10 61.36 66.51 C 60.61 67.27 59.87 68.03 59.13 68.80 C 60.66 68.54 62.20 68.29 63.74 68.06 C 63.42 68.62 62.80 69.74 62.49 70.30 C 58.99 71.93 55.19 72.80 51.65 74.34 C 50.32 74.03 49.01 73.68 47.72 73.29 Z" />
<path fill="#87898b" opacity="1.00" d=" M 11.36 69.46 C 12.84 68.95 14.32 68.41 15.85 68.08 C 18.30 68.26 20.91 68.47 22.92 70.05 C 27.93 73.59 32.92 77.17 37.74 80.97 C 36.00 81.52 34.15 81.70 32.69 80.42 C 27.57 76.93 22.72 73.03 17.28 70.03 C 21.86 74.03 26.47 78.00 31.38 81.58 C 34.30 83.61 36.27 86.96 36.18 90.58 C 35.05 97.34 35.31 104.21 35.54 111.03 C 36.53 106.99 37.97 103.02 40.79 99.88 C 40.54 103.61 40.95 107.68 39.03 111.05 C 37.67 113.25 34.91 113.45 32.61 113.87 C 30.91 109.75 29.21 105.63 27.62 101.47 C 25.47 101.52 23.32 101.57 21.18 101.65 C 22.56 99.28 24.52 96.86 24.05 93.92 C 23.93 88.58 19.22 83.67 13.68 84.55 C 14.73 82.44 13.46 80.55 12.57 78.67 C 11.15 75.97 11.63 72.81 11.38 69.88 L 11.36 69.46 M 20.84 83.34 C 22.76 85.94 24.99 88.59 25.46 91.91 C 25.70 94.61 25.46 97.32 25.51 100.03 C 26.58 98.09 27.27 95.98 27.85 93.85 C 29.45 93.34 31.04 92.84 32.63 92.33 C 32.65 88.97 31.46 85.72 29.04 83.34 C 26.31 83.66 23.56 83.68 20.84 83.34 Z" />
<path fill="#87898b" opacity="1.00" d=" M 63.08 73.31 C 66.50 72.16 69.72 70.55 72.55 68.31 C 72.87 68.77 73.50 69.70 73.82 70.16 C 73.56 71.07 73.31 71.98 73.07 72.89 C 75.04 73.00 77.06 73.13 78.94 72.40 C 79.02 72.68 79.19 73.26 79.28 73.54 C 77.89 73.92 76.51 74.31 75.12 74.69 C 74.80 74.51 74.17 74.17 73.85 74.00 C 73.04 73.63 72.22 73.26 71.41 72.91 C 70.67 74.29 69.94 75.68 69.20 77.06 C 66.93 76.22 64.91 74.88 63.08 73.31 Z" />
<path fill="#87898b" opacity="1.00" d=" M 47.36 79.80 C 50.20 76.93 54.94 77.03 58.61 75.62 C 58.78 80.60 52.68 81.06 48.99 81.52 C 48.58 81.09 47.77 80.23 47.36 79.80 Z" />
<path fill="#87898b" opacity="1.00" d=" M 6.14 97.34 C 4.27 98.69 2.27 94.62 4.52 94.22 C 5.13 95.22 5.61 96.29 6.14 97.34 Z" />
<path fill="#87898b" opacity="1.00" d=" M 49.90 105.19 L 51.24 104.91 C 51.71 106.54 54.92 107.45 54.08 104.91 C 62.70 109.78 69.40 117.53 78.11 122.36 C 83.57 126.64 88.92 131.07 93.82 135.98 C 86.76 132.41 80.81 127.13 74.40 122.59 C 69.93 119.40 65.46 116.21 61.05 112.95 C 61.16 113.60 61.38 114.91 61.49 115.57 C 70.39 120.73 78.29 127.34 86.41 133.60 C 89.73 136.11 91.85 139.75 94.50 142.88 C 87.26 139.88 81.92 133.96 75.42 129.78 C 69.39 125.82 63.63 121.50 57.67 117.45 C 57.35 116.77 57.03 116.10 56.71 115.43 C 56.97 114.99 57.48 114.11 57.73 113.66 C 56.73 111.61 54.91 110.37 52.69 109.93 C 52.63 112.84 52.63 115.75 52.63 118.65 C 53.58 118.50 55.46 118.19 56.40 118.03 C 58.00 118.29 59.48 119.01 60.72 120.04 C 67.28 125.20 73.48 130.79 80.09 135.89 C 84.53 139.31 89.30 142.44 92.92 146.80 C 91.04 146.21 89.20 145.45 87.62 144.25 C 78.00 137.13 68.70 129.53 58.65 123.02 C 59.27 124.44 59.89 125.86 60.54 127.27 C 58.07 124.87 55.52 122.50 52.40 120.95 C 52.47 121.67 52.60 123.13 52.66 123.86 C 51.43 122.45 49.92 120.98 49.73 119.01 C 49.34 114.42 49.41 109.77 49.90 105.19 Z" />
<path fill="#87898b" opacity="1.00" d=" M 19.46 120.94 C 19.21 116.35 19.11 111.71 19.64 107.14 C 20.87 109.50 22.68 111.46 24.63 113.24 C 24.56 118.90 25.11 124.83 22.45 130.05 C 25.05 132.70 27.69 135.31 30.34 137.92 C 35.63 133.56 39.97 128.19 45.08 123.63 C 47.57 127.96 45.41 133.95 49.53 137.46 C 60.68 147.01 72.36 155.93 83.54 165.44 C 86.88 168.08 87.33 172.49 89.05 176.10 C 91.10 178.21 94.04 179.79 97.04 179.70 C 99.52 178.61 101.66 176.85 104.24 175.97 C 118.52 171.21 132.83 166.54 147.04 161.56 C 150.00 160.64 152.27 158.40 153.93 155.86 C 157.60 150.31 161.36 144.40 161.89 137.59 C 177.31 132.51 192.97 128.15 208.49 123.38 C 208.96 129.65 207.62 136.11 209.37 142.23 C 211.87 147.52 216.77 151.08 220.67 155.28 C 226.64 161.33 232.59 167.38 238.62 173.37 L 237.90 173.27 C 237.35 173.19 236.25 173.03 235.70 172.96 C 230.62 168.15 225.76 163.10 220.35 158.66 C 215.69 154.80 212.22 147.93 205.28 148.33 C 201.90 145.34 197.52 147.81 193.96 149.06 C 193.84 149.84 193.60 151.40 193.48 152.19 C 195.46 153.24 197.41 154.35 199.37 155.44 C 198.91 155.42 198.00 155.36 197.54 155.33 C 197.04 154.95 196.04 154.18 195.53 153.80 C 194.45 154.37 193.37 154.95 192.29 155.52 C 190.50 154.64 188.71 153.75 186.86 152.98 C 189.37 152.92 192.53 152.73 193.54 149.95 C 190.54 150.68 187.64 151.74 184.64 152.48 C 181.88 152.99 179.25 153.99 176.73 155.21 C 174.31 156.36 171.84 157.39 169.37 158.42 C 165.26 157.96 160.60 159.51 159.13 163.74 C 156.42 164.50 153.63 164.01 150.88 163.86 C 148.39 164.11 146.10 165.23 143.74 165.99 C 143.55 166.78 143.17 168.36 142.98 169.15 C 145.69 170.37 148.27 171.94 151.15 172.76 C 154.13 172.78 156.88 171.40 159.65 170.48 C 159.68 171.50 159.72 172.53 159.75 173.56 C 159.33 173.19 158.47 172.47 158.05 172.11 C 154.55 173.54 153.04 177.60 149.51 178.82 C 149.73 177.92 149.96 177.03 150.21 176.15 C 148.64 173.93 146.81 171.92 144.80 170.10 C 144.72 170.64 144.56 171.72 144.47 172.26 C 142.18 170.88 139.80 169.34 137.02 169.31 C 132.95 168.90 129.24 170.92 125.81 172.82 C 122.01 175.15 117.23 174.25 113.33 176.33 C 109.65 178.14 105.91 179.85 101.94 180.93 C 102.66 185.00 105.68 187.95 107.94 191.22 C 110.28 194.43 112.30 197.93 115.29 200.59 C 116.80 202.07 118.23 203.63 119.63 205.22 C 120.55 207.75 121.91 210.11 123.71 212.13 C 127.79 216.72 130.27 222.76 135.35 226.39 C 134.17 227.05 133.00 227.72 131.83 228.40 C 123.24 219.13 116.57 208.20 108.05 198.86 C 113.78 208.04 120.35 216.68 126.46 225.62 C 128.22 228.36 130.58 230.77 133.72 231.87 C 133.43 236.39 133.34 240.96 134.37 245.40 C 131.39 243.54 129.02 240.91 126.48 238.53 C 101.37 215.68 76.01 193.10 50.99 170.15 C 48.11 167.39 44.46 165.21 42.83 161.41 C 46.38 163.24 49.09 166.22 52.07 168.80 C 61.69 177.19 71.27 185.63 80.90 194.02 C 82.40 195.62 84.59 195.90 86.65 196.14 C 84.70 195.18 82.64 194.35 81.01 192.88 C 69.00 182.33 57.00 171.78 44.97 161.26 C 43.07 159.63 41.42 157.74 39.86 155.79 C 40.46 157.42 41.05 159.06 41.62 160.71 C 38.53 159.18 36.00 156.83 33.58 154.42 C 29.38 150.21 24.28 146.82 21.11 141.68 L 20.75 141.17 C 20.88 134.86 20.96 128.55 20.70 122.25 C 20.39 121.92 19.77 121.27 19.46 120.94 M 40.50 134.29 C 40.34 138.84 40.30 143.39 40.02 147.94 C 39.76 151.91 41.50 155.93 44.36 158.65 C 57.00 169.68 69.63 180.73 82.25 191.78 C 83.21 192.87 84.65 193.02 85.99 193.24 C 86.06 186.84 85.93 180.45 85.82 174.05 C 85.99 170.41 83.40 167.41 80.75 165.24 C 68.58 155.42 56.45 145.55 44.30 135.69 C 43.16 134.93 42.00 133.55 40.50 134.29 Z" />
<path fill="#87898b" opacity="1.00" d=" M 27.63 116.80 C 32.77 119.75 38.25 116.72 43.59 116.32 C 43.58 117.33 43.57 119.34 43.56 120.34 C 38.33 122.74 32.96 125.08 27.25 126.04 C 27.28 122.95 27.47 119.88 27.63 116.80 Z" />
<path fill="#87898b" opacity="1.00" d=" M 58.06 150.00 C 62.72 152.40 66.40 156.23 70.59 159.33 C 74.77 162.83 79.47 165.81 83.05 169.96 C 84.80 171.88 84.69 174.55 84.74 176.97 C 79.88 172.60 75.52 167.72 70.78 163.22 C 66.61 158.75 61.89 154.78 58.06 150.00 Z" />
<path fill="#87898b" opacity="1.00" d=" M 210.62 151.74 C 213.83 153.63 216.20 156.57 218.59 159.36 C 213.85 157.58 207.94 158.23 204.36 161.91 C 205.18 164.28 208.18 165.03 210.08 166.47 C 209.79 166.39 209.20 166.23 208.91 166.15 C 207.31 164.99 205.74 164.52 204.82 166.79 C 203.17 165.23 203.42 162.92 203.35 160.85 C 205.70 160.03 208.15 159.34 210.27 157.98 C 210.63 155.92 210.58 153.82 210.62 151.74 Z" />
<path fill="#87898b" opacity="1.00" d=" M 207.35 170.04 C 208.77 170.91 210.19 171.78 211.62 172.64 C 211.64 173.72 211.66 174.80 211.69 175.88 C 210.32 175.09 208.94 174.30 207.56 173.53 C 207.49 172.36 207.42 171.20 207.35 170.04 Z" />
<path fill="#87898b" opacity="1.00" d=" M 110.26 180.57 C 112.07 179.76 112.23 183.22 110.73 183.62 C 109.38 183.46 109.46 181.32 110.26 180.57 Z" />
<path fill="#87898b" opacity="1.00" d=" M 128.61 183.17 C 129.04 181.39 132.20 181.96 131.83 183.77 C 131.27 185.37 128.02 185.22 128.61 183.17 Z" />
<path fill="#87898b" opacity="1.00" d=" M 182.26 192.41 C 181.17 192.49 179.25 190.41 180.90 189.91 C 182.13 190.16 182.73 190.90 182.71 192.12 L 182.26 192.41 Z" />
<path fill="#87898b" opacity="1.00" d=" M 250.35 192.87 C 250.84 192.60 251.80 192.04 252.29 191.76 C 252.46 196.77 253.08 201.90 252.06 206.84 C 251.63 207.17 250.77 207.82 250.35 208.14 C 250.37 203.05 250.38 197.96 250.35 192.87 Z" />
<path fill="#87898b" opacity="1.00" d=" M 196.30 193.28 C 196.83 193.79 196.83 193.79 196.30 193.28 Z" />
<path fill="#87898b" opacity="1.00" d=" M 198.57 200.46 C 201.79 198.09 205.95 197.49 209.69 196.28 C 211.10 196.59 212.48 197.00 213.87 197.37 C 212.76 198.90 210.87 198.43 209.31 198.53 C 206.16 198.35 203.24 199.70 200.20 200.26 C 199.79 200.31 198.98 200.41 198.57 200.46 Z" />
<path fill="#87898b" opacity="1.00" d=" M 215.91 205.80 C 224.79 203.61 232.85 198.88 241.80 196.93 C 241.79 200.63 241.50 204.36 241.92 208.05 C 241.73 209.95 243.41 210.53 245.00 210.34 C 240.89 211.81 236.67 212.99 232.58 214.56 C 203.71 225.23 174.68 235.47 145.91 246.40 C 146.01 241.62 145.64 236.82 146.05 232.05 C 147.56 231.09 149.27 230.52 150.94 229.91 C 172.71 222.20 194.17 213.60 215.91 205.80 Z" />
<path fill="#87898b" opacity="1.00" d=" M 208.98 201.41 C 209.53 201.43 210.62 201.48 211.17 201.50 C 211.53 201.72 212.25 202.17 212.61 202.40 C 211.35 203.24 209.97 203.91 208.45 204.10 C 208.58 203.19 208.75 202.30 208.98 201.41 Z" />
</g>
<g id="#f4f4f4ff">
<path fill="#f4f4f4" opacity="1.00" d=" M 106.03 12.17 C 109.26 11.47 112.45 10.16 115.80 10.41 C 118.05 11.74 119.66 13.89 121.73 15.47 C 121.87 15.59 122.14 15.82 122.28 15.94 L 122.40 16.85 C 122.51 17.74 122.64 18.62 122.78 19.50 C 123.88 24.99 125.72 30.29 127.17 35.69 C 128.04 38.79 128.61 41.96 129.07 45.14 C 107.97 50.03 86.79 54.67 65.76 59.86 C 63.86 51.62 61.69 43.43 59.52 35.26 C 58.51 32.67 57.26 30.18 55.83 27.80 C 55.18 26.70 54.44 25.66 53.72 24.61 C 71.16 20.47 88.59 16.30 106.03 12.17 Z" />
<path fill="#f4f4f4" opacity="1.00" d=" M 124.81 19.55 C 129.69 18.59 134.41 16.99 139.30 16.13 C 141.07 18.14 142.69 20.29 143.72 22.77 C 138.06 24.14 132.39 25.45 126.71 26.74 C 126.11 24.34 125.51 21.93 124.81 19.55 Z" />
<path fill="#f4f4f4" opacity="1.00" d=" M 154.43 34.30 C 160.02 34.62 164.91 37.88 169.82 40.29 C 171.37 40.44 172.92 40.56 174.48 40.66 C 176.86 43.11 178.21 46.29 178.21 49.72 C 177.01 50.89 175.56 51.89 174.71 53.36 C 173.87 55.99 173.94 58.80 173.74 61.53 C 173.54 63.12 173.23 64.70 172.82 66.25 C 171.86 59.87 173.57 53.39 172.40 47.05 C 170.54 41.18 163.79 39.69 159.05 36.86 C 157.48 36.06 155.94 35.21 154.43 34.30 Z" />
<path fill="#f4f4f4" opacity="1.00" d=" M 46.16 40.26 C 48.90 39.60 51.99 38.53 54.62 40.15 C 55.40 41.29 56.14 42.46 56.89 43.62 C 50.68 45.27 44.43 46.79 38.14 48.16 C 38.36 51.10 38.79 54.03 39.63 56.86 C 40.52 59.90 41.20 63.00 41.92 66.08 C 42.41 66.18 43.38 66.36 43.87 66.46 C 49.61 67.46 54.96 64.34 60.54 63.65 C 61.72 63.99 62.23 65.35 63.07 66.17 C 62.65 66.25 61.79 66.43 61.36 66.51 C 56.15 67.10 51.85 70.34 47.72 73.29 C 49.01 73.68 50.32 74.03 51.65 74.34 C 50.77 74.60 49.86 74.74 48.96 74.92 L 47.53 74.76 C 47.42 72.27 47.28 69.45 45.18 67.75 C 43.82 66.29 41.70 66.57 39.91 66.35 C 38.48 62.67 37.24 58.86 36.35 54.99 C 35.57 51.04 33.93 47.35 32.11 43.78 C 36.84 42.78 41.50 41.52 46.16 40.26 Z" />
<path fill="#f4f4f4" opacity="1.00" d=" M 142.17 40.69 C 147.62 40.84 152.78 39.00 158.10 38.16 C 158.35 38.69 158.86 39.75 159.11 40.28 L 157.93 40.52 C 153.96 41.07 150.79 43.71 147.46 45.68 C 146.54 44.42 145.72 43.10 144.91 41.78 C 144.23 41.51 142.86 40.97 142.17 40.69 Z" />
<path fill="#f4f4f4" opacity="1.00" d=" M 174.80 38.50 C 179.92 40.19 183.01 45.36 182.44 50.69 C 178.12 49.54 180.38 43.07 176.80 40.63 C 176.30 40.10 175.30 39.04 174.80 38.50 Z" />
<path fill="#f4f4f4" opacity="1.00" d=" M 126.68 57.07 C 128.25 55.37 130.64 55.43 132.75 55.12 C 132.94 57.73 133.31 60.40 132.59 62.96 C 129.13 65.64 131.02 58.67 128.21 57.99 C 127.83 57.76 127.06 57.30 126.68 57.07 Z" />
<path fill="#f4f4f4" opacity="1.00" d=" M 113.50 59.99 C 115.47 58.19 118.13 58.35 120.61 58.30 C 120.76 61.05 121.00 63.88 120.25 66.58 C 119.36 67.22 118.28 67.51 117.29 67.94 C 117.25 67.32 117.17 66.06 117.14 65.44 C 117.36 64.03 117.00 62.89 116.05 62.02 C 115.23 61.31 114.38 60.64 113.50 59.99 Z" />
<path fill="#f4f4f4" opacity="1.00" d=" M 99.96 62.02 C 102.48 61.61 105.00 61.19 107.50 60.72 C 107.95 63.35 108.00 66.03 107.63 68.68 C 107.12 68.69 106.12 68.71 105.61 68.72 C 104.93 67.58 104.29 66.41 103.48 65.35 C 103.17 65.04 102.55 64.44 102.24 64.13 C 101.48 63.42 100.72 62.72 99.96 62.02 Z" />
<path fill="#f4f4f4" opacity="1.00" d=" M 80.79 66.32 C 86.92 66.47 92.66 61.98 98.72 63.91 C 97.26 64.16 96.33 64.98 95.95 66.36 C 95.49 68.84 96.09 72.43 92.83 73.00 C 92.33 71.54 91.84 70.08 91.37 68.62 C 89.31 67.31 86.87 66.84 84.61 68.05 C 81.90 68.65 83.24 72.62 82.58 74.72 C 81.53 75.19 80.49 75.65 79.44 76.12 C 79.40 75.48 79.32 74.19 79.28 73.54 C 79.19 73.26 79.02 72.68 78.94 72.40 C 77.45 71.19 75.64 70.61 73.82 70.16 C 73.50 69.70 72.87 68.77 72.55 68.31 C 75.30 67.66 78.06 67.05 80.79 66.32 Z" />
<path fill="#f4f4f4" opacity="1.00" d=" M 17.28 70.03 C 22.72 73.03 27.57 76.93 32.69 80.42 C 34.15 81.70 36.00 81.52 37.74 80.97 C 39.38 82.25 40.69 83.93 41.45 85.88 C 42.41 89.94 37.69 91.63 37.42 95.30 C 37.00 98.23 36.80 101.20 36.37 104.14 C 36.00 99.62 36.33 95.10 36.18 90.58 C 36.27 86.96 34.30 83.61 31.38 81.58 C 26.47 78.00 21.86 74.03 17.28 70.03 Z" />
<path fill="#f4f4f4" opacity="1.00" d=" M 35.01 72.62 C 36.46 72.70 37.94 72.78 39.27 73.44 C 39.48 76.83 42.34 79.35 45.64 79.63 C 48.49 85.03 48.96 92.05 44.75 96.88 C 46.20 90.05 44.94 82.20 40.19 76.87 C 39.36 75.88 38.75 74.74 38.18 73.59 C 37.12 73.27 36.06 72.95 35.01 72.62 Z" />
<path fill="#f4f4f4" opacity="1.00" d=" M 20.84 83.34 C 23.56 83.68 26.31 83.66 29.04 83.34 C 31.46 85.72 32.65 88.97 32.63 92.33 C 31.04 92.84 29.45 93.34 27.85 93.85 C 27.27 95.98 26.58 98.09 25.51 100.03 C 25.46 97.32 25.70 94.61 25.46 91.91 C 24.99 88.59 22.76 85.94 20.84 83.34 Z" />
<path fill="#f4f4f4" opacity="1.00" d=" M 181.40 94.61 C 187.41 93.15 193.25 90.71 199.54 90.74 C 199.17 91.88 199.22 93.28 198.23 94.12 C 194.80 97.34 190.19 98.81 185.86 100.40 C 173.86 104.15 161.53 106.93 149.83 111.60 C 140.57 114.92 131.49 118.72 122.23 122.03 C 118.58 123.53 114.44 124.71 111.96 128.01 C 110.30 129.93 109.53 132.38 108.85 134.77 C 106.82 135.41 104.91 136.38 103.04 137.40 C 102.35 137.46 100.96 137.59 100.27 137.66 C 100.26 137.89 100.25 138.35 100.24 138.58 C 102.96 138.33 105.65 137.82 108.27 137.05 C 136.73 128.29 165.13 119.35 193.63 110.74 C 197.47 109.55 201.41 108.57 205.45 108.46 C 203.09 109.08 200.71 109.67 198.41 110.48 C 198.46 111.18 198.57 112.59 198.62 113.30 C 191.05 115.44 183.52 117.71 175.96 119.89 C 170.36 121.69 164.63 123.06 159.04 124.91 C 157.83 125.14 156.62 125.37 155.42 125.61 L 155.43 126.58 C 154.05 126.46 152.68 126.34 151.32 126.23 L 151.51 127.61 C 150.10 127.47 148.70 127.32 147.30 127.17 L 147.52 128.30 C 143.13 129.31 138.20 129.58 134.45 132.20 C 132.45 132.81 130.41 133.29 128.34 133.55 L 128.49 134.66 C 127.72 134.54 126.18 134.30 125.41 134.18 L 125.43 135.64 C 124.67 135.53 123.17 135.31 122.42 135.21 L 122.41 136.62 C 121.68 136.52 120.20 136.34 119.46 136.24 L 119.35 137.51 C 118.76 137.52 117.56 137.56 116.97 137.57 C 113.36 139.15 109.34 139.65 105.95 141.72 C 105.37 140.92 104.54 140.47 103.60 140.29 L 105.72 142.18 C 103.21 142.99 100.66 143.61 98.07 144.05 C 99.36 144.16 100.64 144.27 101.94 144.36 C 104.07 147.25 100.58 148.15 98.47 148.90 C 98.44 149.35 98.40 150.25 98.37 150.70 C 100.52 150.92 102.68 150.89 104.65 149.89 C 133.94 140.68 163.28 131.63 192.67 122.72 C 195.01 121.97 197.41 121.43 199.84 121.05 C 198.87 122.59 198.65 125.10 196.51 125.42 C 188.36 127.86 180.18 130.20 171.98 132.48 C 167.84 133.66 163.75 135.10 159.46 135.63 L 159.38 136.51 C 158.74 136.52 157.47 136.54 156.84 136.55 C 154.24 137.38 151.62 138.13 148.96 138.73 C 147.93 139.05 146.90 139.38 145.87 139.69 C 142.96 140.60 140.01 141.39 137.03 142.07 C 132.81 143.13 128.84 145.17 124.46 145.51 C 125.39 145.87 126.31 146.23 127.23 146.60 C 126.40 146.57 124.73 146.50 123.89 146.46 C 120.56 147.91 117.15 149.38 113.48 149.63 L 113.47 150.43 C 111.49 150.84 109.51 151.27 107.52 151.64 L 107.36 152.22 C 104.73 153.38 102.06 154.45 99.27 155.13 C 99.39 155.27 99.63 155.55 99.75 155.68 C 101.26 159.99 99.48 164.49 99.35 168.87 C 99.33 170.98 97.30 174.60 94.89 173.18 C 92.97 171.30 92.68 168.50 92.38 165.98 C 91.98 161.78 90.69 157.40 92.45 153.33 C 92.48 153.22 92.53 153.02 92.55 152.91 C 91.81 151.99 91.03 151.11 90.25 150.23 L 90.16 147.11 C 91.53 147.57 92.90 148.04 94.28 148.49 C 93.83 147.92 93.38 147.36 92.92 146.80 C 89.30 142.44 84.53 139.31 80.09 135.89 C 73.48 130.79 67.28 125.20 60.72 120.04 C 59.48 119.01 58.00 118.29 56.40 118.03 C 56.48 117.38 56.63 116.08 56.71 115.43 C 57.03 116.10 57.35 116.77 57.67 117.45 C 63.63 121.50 69.39 125.82 75.42 129.78 C 81.92 133.96 87.26 139.88 94.50 142.88 C 91.85 139.75 89.73 136.11 86.41 133.60 C 78.29 127.34 70.39 120.73 61.49 115.57 C 61.38 114.91 61.16 113.60 61.05 112.95 C 65.46 116.21 69.93 119.40 74.40 122.59 C 80.81 127.13 86.76 132.41 93.82 135.98 C 88.92 131.07 83.57 126.64 78.11 122.36 C 75.09 117.89 70.31 115.18 66.63 111.35 C 63.49 108.24 60.31 104.67 60.04 100.03 C 65.74 101.11 70.58 104.46 75.11 107.91 C 80.38 112.00 86.40 114.93 92.01 118.49 C 96.55 117.09 100.91 115.17 105.46 113.79 C 110.90 113.35 116.56 113.92 121.75 111.83 C 127.11 109.21 133.21 109.14 138.72 106.93 C 153.16 103.57 166.89 97.73 181.40 94.61 Z" />
<path fill="#f4f4f4" opacity="1.00" d=" M 21.06 104.68 C 21.53 106.27 22.05 107.83 22.58 109.39 C 24.63 111.57 26.68 113.90 27.63 116.80 C 27.47 119.88 27.28 122.95 27.25 126.04 C 26.88 125.85 26.14 125.48 25.77 125.29 C 25.56 121.53 25.76 117.76 25.39 114.01 L 24.63 113.24 C 22.68 111.46 20.87 109.50 19.64 107.14 L 21.58 108.86 C 21.45 107.82 21.19 105.73 21.06 104.68 Z" />
<path fill="#f4f4f4" opacity="1.00" d=" M 192.88 116.63 C 198.26 115.21 203.48 113.25 208.72 111.37 C 208.70 112.69 208.68 114.01 208.67 115.33 C 204.72 117.02 200.51 117.94 196.49 119.44 C 195.29 118.50 194.08 117.56 192.88 116.63 Z" />
<path fill="#f4f4f4" opacity="1.00" d=" M 143.57 131.64 C 153.77 128.38 164.09 125.53 174.27 122.22 C 174.31 123.61 174.35 124.99 174.39 126.38 C 164.39 129.17 154.54 132.48 144.64 135.61 C 144.37 134.62 143.84 132.64 143.57 131.64 Z" />
<path fill="#f4f4f4" opacity="1.00" d=" M 205.28 148.33 C 212.22 147.93 215.69 154.80 220.35 158.66 L 219.79 160.79 C 219.49 160.43 218.89 159.71 218.59 159.36 C 216.20 156.57 213.83 153.63 210.62 151.74 C 208.78 150.71 206.98 149.58 205.28 148.33 Z" />
<path fill="#f4f4f4" opacity="1.00" d=" M 184.64 152.48 C 187.64 151.74 190.54 150.68 193.54 149.95 C 192.53 152.73 189.37 152.92 186.86 152.98 C 186.31 152.86 185.20 152.60 184.64 152.48 Z" />
<path fill="#f4f4f4" opacity="1.00" d=" M 169.37 158.42 C 171.84 157.39 174.31 156.36 176.73 155.21 C 176.66 155.77 176.51 156.90 176.43 157.46 C 174.16 158.24 171.78 158.66 169.37 158.42 Z" />
<path fill="#f4f4f4" opacity="1.00" d=" M 39.86 155.79 C 41.42 157.74 43.07 159.63 44.97 161.26 C 57.00 171.78 69.00 182.33 81.01 192.88 C 82.64 194.35 84.70 195.18 86.65 196.14 C 84.59 195.90 82.40 195.62 80.90 194.02 C 71.27 185.63 61.69 177.19 52.07 168.80 C 49.09 166.22 46.38 163.24 42.83 161.41 C 42.43 161.16 42.03 160.93 41.62 160.71 C 41.05 159.06 40.46 157.42 39.86 155.79 Z" />
<path fill="#f4f4f4" opacity="1.00" d=" M 246.33 195.69 C 247.64 194.72 248.97 193.75 250.35 192.87 C 250.38 197.96 250.37 203.05 250.35 208.14 L 249.39 208.54 C 248.65 208.56 247.15 208.60 246.41 208.62 C 246.41 204.31 246.44 200.00 246.33 195.69 Z" />
<path fill="#f4f4f4" opacity="1.00" d=" M 108.05 198.86 C 116.57 208.20 123.24 219.13 131.83 228.40 C 139.09 232.83 147.50 229.62 154.60 226.63 C 173.08 219.74 191.68 213.19 210.10 206.17 C 211.95 205.34 213.96 205.57 215.91 205.80 C 194.17 213.60 172.71 222.20 150.94 229.91 C 149.27 230.52 147.56 231.09 146.05 232.05 C 145.64 236.82 146.01 241.62 145.91 246.40 C 143.47 246.75 140.99 246.74 138.53 246.51 C 138.76 242.00 138.81 237.48 138.48 232.97 C 136.89 232.62 135.30 232.27 133.72 231.87 C 130.58 230.77 128.22 228.36 126.46 225.62 C 120.35 216.68 113.78 208.04 108.05 198.86 Z" />
<path fill="#f4f4f4" opacity="1.00" d=" M 162.98 212.22 C 174.88 208.43 186.48 203.58 198.57 200.46 C 198.98 200.41 199.79 200.31 200.20 200.26 C 187.72 204.94 175.22 209.59 162.60 213.90 C 162.56 214.51 162.46 215.72 162.41 216.33 C 159.81 216.56 160.06 214.31 159.99 212.46 C 160.74 212.40 162.23 212.28 162.98 212.22 Z" />
</g>
<g id="#444445ff">
<path fill="#444445" opacity="1.00" d=" M 135.30 13.95 C 139.30 12.80 143.48 15.63 145.17 19.19 C 147.09 23.32 148.46 27.69 150.04 31.97 C 152.40 31.64 154.72 31.11 157.07 30.72 C 161.96 32.22 166.19 35.28 170.84 37.35 C 174.25 36.39 177.64 38.08 181.07 37.30 C 183.67 36.68 185.75 38.63 187.15 40.56 C 188.02 41.71 188.84 42.90 189.68 44.09 C 189.70 43.25 189.75 41.59 189.77 40.76 C 191.32 42.17 191.00 44.82 188.85 45.45 C 188.72 48.02 188.45 51.37 185.57 52.35 C 182.96 53.11 181.32 55.31 179.39 57.05 C 178.99 60.99 178.60 64.94 178.53 68.92 C 178.20 68.70 177.54 68.26 177.21 68.04 C 177.34 63.99 177.74 59.96 177.95 55.91 C 178.09 54.03 178.18 52.13 178.28 50.24 C 178.67 52.23 179.08 54.21 179.48 56.19 C 181.10 54.74 182.01 52.80 182.44 50.69 C 183.01 45.36 179.92 40.19 174.80 38.50 C 175.30 39.04 176.30 40.10 176.80 40.63 L 174.48 40.66 C 172.92 40.56 171.37 40.44 169.82 40.29 C 164.91 37.88 160.02 34.62 154.43 34.30 C 155.94 35.21 157.48 36.06 159.05 36.86 C 158.82 37.19 158.34 37.84 158.10 38.16 C 152.78 39.00 147.62 40.84 142.17 40.69 C 139.69 44.80 134.59 44.93 130.49 46.31 C 130.49 44.50 130.51 42.68 130.55 40.87 C 136.80 39.79 142.95 38.18 149.05 36.46 C 148.32 34.37 147.59 32.29 146.75 30.24 C 145.69 27.77 144.75 25.25 143.72 22.77 C 142.69 20.29 141.07 18.14 139.30 16.13 C 134.41 16.99 129.69 18.59 124.81 19.55 C 124.31 19.54 123.29 19.51 122.78 19.50 C 122.64 18.62 122.51 17.74 122.40 16.85 C 126.84 16.63 131.04 15.06 135.30 13.95 M 182.28 42.82 C 182.73 44.51 183.18 46.21 183.64 47.90 C 184.65 47.78 186.69 47.54 187.70 47.41 C 187.71 45.07 187.27 42.67 185.25 41.21 C 184.51 41.61 183.03 42.41 182.28 42.82 Z" />
<path fill="#444445" opacity="1.00" d=" M 55.83 27.80 C 57.26 30.18 58.51 32.67 59.52 35.26 C 56.43 38.01 51.81 38.61 48.16 36.57 C 51.18 35.18 54.47 34.59 57.71 33.96 C 57.19 32.41 56.49 30.92 55.72 29.47 L 55.74 29.20 C 55.76 28.85 55.80 28.15 55.83 27.80 Z" />
<path fill="#444445" opacity="1.00" d=" M 159.11 40.28 C 159.70 40.12 160.28 39.95 160.87 39.77 C 166.21 45.56 170.21 54.06 166.94 61.86 C 166.65 63.61 164.62 62.83 163.47 62.78 C 158.98 61.92 154.41 61.94 149.88 62.25 C 150.10 59.52 150.46 56.81 150.95 54.13 C 154.87 53.15 158.78 52.14 162.71 51.23 C 162.36 49.67 162.01 48.12 161.67 46.57 C 158.62 47.93 155.51 49.14 152.33 50.15 C 152.87 50.67 153.94 51.73 154.48 52.26 C 153.03 52.53 151.59 52.80 150.14 53.06 C 149.32 52.57 148.49 52.08 147.67 51.60 C 145.92 51.88 144.07 52.57 142.37 51.71 C 139.03 50.08 135.37 51.30 131.95 51.95 C 114.90 56.73 97.69 61.01 80.79 66.32 C 78.06 67.05 75.30 67.66 72.55 68.31 C 69.72 70.55 66.50 72.16 63.08 73.31 C 64.91 74.88 66.93 76.22 69.20 77.06 C 69.94 75.68 70.67 74.29 71.41 72.91 C 72.22 73.26 73.04 73.63 73.85 74.00 C 74.06 76.76 74.24 79.52 74.40 82.29 C 67.57 85.03 59.42 84.80 53.65 89.81 C 51.12 91.97 49.21 94.92 48.55 98.20 C 47.78 105.10 47.44 112.05 47.57 119.00 C 47.89 121.01 46.39 122.38 45.08 123.63 C 39.97 128.19 35.63 133.56 30.34 137.92 C 27.69 135.31 25.05 132.70 22.45 130.05 C 25.11 124.83 24.56 118.90 24.63 113.24 L 25.39 114.01 C 25.76 117.76 25.56 121.53 25.77 125.29 C 26.14 125.48 26.88 125.85 27.25 126.04 C 32.96 125.08 38.33 122.74 43.56 120.34 C 43.57 119.34 43.58 117.33 43.59 116.32 C 38.25 116.72 32.77 119.75 27.63 116.80 C 26.68 113.90 24.63 111.57 22.58 109.39 C 22.05 107.83 21.53 106.27 21.06 104.68 C 20.92 104.10 20.65 102.93 20.51 102.34 C 16.42 100.14 12.37 104.73 8.37 102.58 C 5.70 101.31 4.33 98.48 2.68 96.18 C 3.16 94.15 3.27 92.00 4.05 90.05 C 5.44 87.36 8.66 87.02 11.24 86.22 C 12.90 82.58 9.40 79.60 9.24 76.06 C 9.16 73.86 9.09 71.04 11.38 69.88 C 11.63 72.81 11.15 75.97 12.57 78.67 C 13.46 80.55 14.73 82.44 13.68 84.55 C 19.22 83.67 23.93 88.58 24.05 93.92 C 24.52 96.86 22.56 99.28 21.18 101.65 C 23.32 101.57 25.47 101.52 27.62 101.47 C 29.21 105.63 30.91 109.75 32.61 113.87 C 34.91 113.45 37.67 113.25 39.03 111.05 C 40.95 107.68 40.54 103.61 40.79 99.88 C 41.00 95.21 41.96 90.56 41.45 85.88 C 40.69 83.93 39.38 82.25 37.74 80.97 C 32.92 77.17 27.93 73.59 22.92 70.05 C 20.91 68.47 18.30 68.26 15.85 68.08 C 18.93 66.59 22.52 66.95 25.02 69.35 C 24.01 65.46 22.72 61.65 21.42 57.85 L 21.62 57.79 C 25.87 56.50 30.17 55.36 34.30 53.71 C 34.98 54.14 35.67 54.56 36.35 54.99 C 37.24 58.86 38.48 62.67 39.91 66.35 C 40.99 69.71 41.77 73.24 43.77 76.22 C 45.54 75.98 47.29 75.56 48.96 74.92 C 49.86 74.74 50.77 74.60 51.65 74.34 C 55.19 72.80 58.99 71.93 62.49 70.30 C 62.80 69.74 63.42 68.62 63.74 68.06 C 62.20 68.29 60.66 68.54 59.13 68.80 C 59.87 68.03 60.61 67.27 61.36 66.51 C 61.79 66.43 62.65 66.25 63.07 66.17 C 62.23 65.35 61.72 63.99 60.54 63.65 C 54.96 64.34 49.61 67.46 43.87 66.46 C 43.64 65.77 43.16 64.38 42.92 63.69 C 49.58 61.57 56.54 60.61 63.20 58.51 C 63.94 59.99 64.68 61.47 65.43 62.94 C 64.95 64.03 64.46 65.11 63.97 66.18 L 63.31 67.57 C 65.41 67.19 67.51 66.80 69.58 66.25 C 91.98 59.92 114.43 53.76 136.83 47.41 C 139.14 46.72 141.56 46.54 143.96 46.42 C 144.23 50.13 147.64 47.31 149.78 46.99 C 153.09 45.93 156.54 45.21 159.69 43.70 C 160.67 42.13 158.91 41.37 157.93 40.52 L 159.11 40.28 M 35.01 72.62 C 36.06 72.95 37.12 73.27 38.18 73.59 C 38.75 74.74 39.36 75.88 40.19 76.87 C 44.94 82.20 46.20 90.05 44.75 96.88 C 48.96 92.05 48.49 85.03 45.64 79.63 C 42.34 79.35 39.48 76.83 39.27 73.44 C 37.94 72.78 36.46 72.70 35.01 72.62 M 47.36 79.80 C 47.77 80.23 48.58 81.09 48.99 81.52 C 52.68 81.06 58.78 80.60 58.61 75.62 C 54.94 77.03 50.20 76.93 47.36 79.80 M 61.11 76.69 C 61.36 79.23 61.42 81.78 61.41 84.33 C 61.84 82.49 62.22 80.64 62.55 78.78 C 62.96 78.30 63.77 77.33 64.18 76.85 C 63.41 76.81 61.88 76.73 61.11 76.69 M 9.83 87.88 C 11.39 89.80 13.20 91.60 14.23 93.90 C 14.91 96.09 14.64 98.44 14.84 100.70 C 15.85 99.41 16.83 98.09 17.78 96.76 C 19.43 96.34 21.07 95.89 22.72 95.44 C 22.77 93.15 22.30 90.80 20.37 89.35 C 18.93 90.58 17.02 90.62 15.25 90.88 C 14.51 89.82 13.76 88.77 13.01 87.71 C 12.22 87.75 10.63 87.84 9.83 87.88 M 4.52 94.22 C 2.27 94.62 4.27 98.69 6.14 97.34 L 7.14 98.32 C 7.32 97.69 7.67 96.43 7.85 95.80 C 8.57 95.70 10.01 95.50 10.73 95.40 C 10.61 94.73 10.38 93.37 10.27 92.70 C 8.35 93.20 6.43 93.70 4.52 94.22 Z" />
<path fill="#444445" opacity="1.00" d=" M 145.21 55.43 C 145.78 54.24 146.35 53.05 146.93 51.87 C 150.10 54.35 148.97 58.75 149.63 62.23 C 148.32 62.68 147.00 63.13 145.69 63.56 C 143.07 64.43 140.40 65.13 137.72 65.78 C 137.76 63.16 137.84 60.53 137.83 57.91 C 140.30 57.10 142.76 56.28 145.21 55.43 Z" />
<path fill="#444445" opacity="1.00" d=" M 135.74 55.87 C 136.78 52.93 141.79 52.40 141.81 56.25 C 139.78 56.17 137.76 56.05 135.74 55.87 Z" />
<path fill="#444445" opacity="1.00" d=" M 122.09 57.93 C 123.60 57.54 125.13 57.26 126.68 57.07 C 127.06 57.30 127.83 57.76 128.21 57.99 L 129.18 59.67 C 126.67 59.89 123.79 60.22 122.09 57.93 Z" />
<path fill="#444445" opacity="1.00" d=" M 133.98 55.92 C 134.74 56.41 136.25 57.38 137.00 57.87 C 137.13 60.45 137.35 63.02 137.21 65.60 C 136.30 65.92 134.49 66.54 133.58 66.86 C 133.79 63.21 133.98 59.57 133.98 55.92 Z" />
<path fill="#444445" opacity="1.00" d=" M 109.75 61.81 C 111.01 61.21 112.27 60.63 113.50 59.99 C 114.38 60.64 115.23 61.31 116.05 62.02 L 116.77 63.31 C 114.32 63.44 111.79 63.33 109.75 61.81 Z" />
<path fill="#444445" opacity="1.00" d=" M 121.38 58.85 C 125.96 60.06 123.76 65.86 124.50 69.33 C 123.67 69.44 122.00 69.65 121.17 69.76 C 121.32 66.12 121.34 62.49 121.38 58.85 Z" />
<path fill="#444445" opacity="1.00" d=" M 125.47 60.70 C 126.38 60.57 128.18 60.30 129.08 60.17 C 129.37 62.84 129.62 65.51 129.72 68.20 C 128.05 68.41 126.38 68.62 124.72 68.82 C 124.91 66.11 125.18 63.40 125.47 60.70 Z" />
<path fill="#444445" opacity="1.00" d=" M 108.89 62.14 C 109.43 62.37 110.52 62.81 111.06 63.03 C 111.94 66.00 111.84 69.15 112.22 72.21 C 110.98 72.57 109.74 72.93 108.49 73.28 C 108.61 69.57 108.89 65.86 108.89 62.14 Z" />
<path fill="#444445" opacity="1.00" d=" M 95.95 66.36 C 96.33 64.98 97.26 64.16 98.72 63.91 C 99.89 63.99 101.06 64.06 102.24 64.13 C 102.55 64.44 103.17 65.04 103.48 65.35 L 104.06 66.57 C 101.36 66.26 98.65 66.05 95.95 66.36 Z" />
<path fill="#444445" opacity="1.00" d=" M 113.16 64.13 C 113.94 63.96 115.51 63.62 116.29 63.45 C 116.50 63.94 116.93 64.94 117.14 65.44 C 117.17 66.06 117.25 67.32 117.29 67.94 C 117.31 68.74 117.36 70.32 117.38 71.11 C 115.76 71.55 114.15 72.00 112.53 72.44 C 112.25 69.65 112.38 66.83 113.16 64.13 Z" />
<path fill="#444445" opacity="1.00" d=" M 84.61 68.05 C 86.87 66.84 89.31 67.31 91.37 68.62 C 91.64 71.78 91.53 74.94 91.14 78.09 C 90.10 78.28 88.03 78.66 86.99 78.85 C 87.50 75.93 86.38 71.71 89.96 70.47 C 87.99 70.15 86.08 69.46 84.61 68.05 Z" />
<path fill="#444445" opacity="1.00" d=" M 97.25 67.08 C 98.23 66.93 98.98 67.32 99.48 68.26 C 99.13 70.87 99.15 73.52 99.20 76.15 C 96.66 76.76 92.06 74.88 91.90 78.79 C 91.98 77.64 92.05 76.49 92.12 75.35 C 93.00 75.50 94.75 75.81 95.63 75.96 L 95.76 74.32 C 95.91 74.67 96.20 75.36 96.35 75.70 C 96.42 72.84 95.12 69.44 97.25 67.08 Z" />
<path fill="#444445" opacity="1.00" d=" M 100.32 68.00 C 101.28 67.16 102.70 67.27 103.86 66.90 C 104.19 69.37 104.53 71.84 104.89 74.31 C 103.19 74.80 101.48 75.24 99.76 75.65 C 99.83 73.09 99.84 70.52 100.32 68.00 Z" />
<path fill="#444445" opacity="1.00" d=" M 73.82 70.16 C 75.64 70.61 77.45 71.19 78.94 72.40 C 77.06 73.13 75.04 73.00 73.07 72.89 C 73.31 71.98 73.56 71.07 73.82 70.16 Z" />
<path fill="#444445" opacity="1.00" d=" M 83.67 70.52 C 84.00 70.32 84.66 69.94 85.00 69.75 C 85.33 69.94 86.01 70.31 86.34 70.50 C 86.63 73.38 86.95 76.30 86.65 79.20 C 85.81 79.36 84.12 79.68 83.27 79.85 C 83.44 76.74 83.48 73.62 83.67 70.52 Z" />
<path fill="#444445" opacity="1.00" d=" M 75.12 74.69 C 76.51 74.31 77.89 73.92 79.28 73.54 C 79.32 74.19 79.40 75.48 79.44 76.12 C 79.51 77.84 79.56 79.56 79.61 81.28 C 77.96 81.59 76.31 81.89 74.66 82.20 C 74.82 79.69 75.02 77.19 75.12 74.69 Z" />
<path fill="#444445" opacity="1.00" d=" M 208.29 92.93 C 209.01 95.76 209.37 98.67 209.27 101.59 C 209.92 101.76 211.20 102.09 211.84 102.26 C 211.83 104.10 211.97 105.97 211.62 107.79 C 210.68 109.55 209.03 110.97 209.21 113.16 C 212.70 112.51 211.89 115.96 211.79 118.11 C 211.78 119.80 210.34 120.87 209.34 122.02 C 209.04 128.75 209.07 135.50 209.37 142.23 C 207.62 136.11 208.96 129.65 208.49 123.38 C 192.97 128.15 177.31 132.51 161.89 137.59 C 146.03 142.66 130.03 147.29 114.14 152.28 C 109.41 153.66 104.78 155.75 99.75 155.68 C 99.63 155.55 99.39 155.27 99.27 155.13 C 102.06 154.45 104.73 153.38 107.36 152.22 L 107.52 151.64 C 109.51 151.27 111.49 150.84 113.47 150.43 L 113.48 149.63 C 117.15 149.38 120.56 147.91 123.89 146.46 C 124.73 146.50 126.40 146.57 127.23 146.60 C 126.31 146.23 125.39 145.87 124.46 145.51 C 128.84 145.17 132.81 143.13 137.03 142.07 C 140.01 141.39 142.96 140.60 145.87 139.69 C 146.90 139.38 147.93 139.05 148.96 138.73 C 151.62 138.13 154.24 137.38 156.84 136.55 C 157.47 136.54 158.74 136.52 159.38 136.51 L 159.46 135.63 C 163.75 135.10 167.84 133.66 171.98 132.48 C 180.18 130.20 188.36 127.86 196.51 125.42 C 198.65 125.10 198.87 122.59 199.84 121.05 C 197.41 121.43 195.01 121.97 192.67 122.72 C 163.28 131.63 133.94 140.68 104.65 149.89 C 103.67 149.78 101.71 149.55 100.73 149.43 C 115.25 144.46 130.05 140.35 144.64 135.61 C 154.54 132.48 164.39 129.17 174.39 126.38 C 181.83 124.31 189.23 122.05 196.49 119.44 C 200.51 117.94 204.72 117.02 208.67 115.33 C 208.68 114.01 208.70 112.69 208.72 111.37 C 203.48 113.25 198.26 115.21 192.88 116.63 C 186.64 118.38 180.41 120.18 174.27 122.22 C 164.09 125.53 153.77 128.38 143.57 131.64 C 129.73 136.01 115.92 140.48 101.94 144.36 C 100.64 144.27 99.36 144.16 98.07 144.05 C 100.66 143.61 103.21 142.99 105.72 142.18 L 103.60 140.29 C 104.54 140.47 105.37 140.92 105.95 141.72 C 109.34 139.65 113.36 139.15 116.97 137.57 C 117.56 137.56 118.76 137.52 119.35 137.51 L 119.46 136.24 C 120.20 136.34 121.68 136.52 122.41 136.62 L 122.42 135.21 C 123.17 135.31 124.67 135.53 125.43 135.64 L 125.41 134.18 C 126.18 134.30 127.72 134.54 128.49 134.66 L 128.34 133.55 C 130.41 133.29 132.45 132.81 134.45 132.20 C 138.20 129.58 143.13 129.31 147.52 128.30 L 147.30 127.17 C 148.70 127.32 150.10 127.47 151.51 127.61 L 151.32 126.23 C 152.68 126.34 154.05 126.46 155.43 126.58 L 155.42 125.61 C 156.62 125.37 157.83 125.14 159.04 124.91 C 164.63 123.06 170.36 121.69 175.96 119.89 C 183.52 117.71 191.05 115.44 198.62 113.30 C 198.57 112.59 198.46 111.18 198.41 110.48 C 200.71 109.67 203.09 109.08 205.45 108.46 C 201.41 108.57 197.47 109.55 193.63 110.74 C 165.13 119.35 136.73 128.29 108.27 137.05 C 105.65 137.82 102.96 138.33 100.24 138.58 C 100.25 138.35 100.26 137.89 100.27 137.66 C 100.96 137.59 102.35 137.46 103.04 137.40 C 104.91 136.38 106.82 135.41 108.85 134.77 C 115.34 133.49 121.50 131.06 127.83 129.23 C 142.48 124.78 157.00 119.86 171.70 115.59 C 178.14 114.22 184.30 111.86 190.60 109.98 C 196.69 108.02 202.93 106.46 208.77 103.82 C 208.72 100.19 208.70 96.54 208.29 92.93 Z" />
<path fill="#444445" opacity="1.00" d=" M 51.24 104.91 C 51.95 104.91 53.37 104.91 54.08 104.91 C 54.92 107.45 51.71 106.54 51.24 104.91 Z" />
<path fill="#444445" opacity="1.00" d=" M 52.69 109.93 C 54.91 110.37 56.73 111.61 57.73 113.66 C 57.48 114.11 56.97 114.99 56.71 115.43 C 56.63 116.08 56.48 117.38 56.40 118.03 C 55.46 118.19 53.58 118.50 52.63 118.65 C 52.63 115.75 52.63 112.84 52.69 109.93 Z" />
<path fill="#444445" opacity="1.00" d=" M 52.40 120.95 C 55.52 122.50 58.07 124.87 60.54 127.27 C 64.78 131.18 69.70 134.25 74.24 137.78 C 79.79 141.66 84.81 146.21 90.25 150.23 C 91.03 151.11 91.81 151.99 92.55 152.91 C 92.53 153.02 92.48 153.22 92.45 153.33 C 89.31 151.18 85.98 149.31 83.01 146.93 C 72.98 139.13 62.68 131.66 52.66 123.86 C 52.60 123.13 52.47 121.67 52.40 120.95 Z" />
<path fill="#444445" opacity="1.00" d=" M 21.11 141.68 C 24.28 146.82 29.38 150.21 33.58 154.42 C 36.00 156.83 38.53 159.18 41.62 160.71 C 42.03 160.93 42.43 161.16 42.83 161.41 C 44.46 165.21 48.11 167.39 50.99 170.15 C 76.01 193.10 101.37 215.68 126.48 238.53 C 129.02 240.91 131.39 243.54 134.37 245.40 C 135.75 245.81 137.13 246.18 138.53 246.51 C 140.99 246.74 143.47 246.75 145.91 246.40 C 174.68 235.47 203.71 225.23 232.58 214.56 C 236.67 212.99 240.89 211.81 245.00 210.34 C 246.49 209.80 247.93 209.15 249.39 208.54 L 250.35 208.14 C 250.77 207.82 251.63 207.17 252.06 206.84 C 253.08 201.90 252.46 196.77 252.29 191.76 C 252.19 190.14 252.13 188.52 252.05 186.90 C 253.21 188.35 252.80 190.28 252.77 191.99 C 252.40 197.19 252.80 202.40 252.56 207.60 C 251.83 209.39 249.77 210.10 248.11 210.80 C 214.61 223.01 181.10 235.23 147.61 247.49 C 140.67 250.24 132.39 247.96 127.47 242.44 C 92.78 210.83 57.95 179.36 23.26 147.75 C 21.30 146.32 20.90 143.95 21.11 141.68 Z" />
<path fill="#444445" opacity="1.00" d=" M 193.96 149.06 C 197.52 147.81 201.90 145.34 205.28 148.33 C 206.98 149.58 208.78 150.71 210.62 151.74 C 210.58 153.82 210.63 155.92 210.27 157.98 C 208.15 159.34 205.70 160.03 203.35 160.85 C 203.42 162.92 203.17 165.23 204.82 166.79 C 205.74 164.52 207.31 164.99 208.91 166.15 C 210.23 167.74 211.36 169.48 212.40 171.27 C 214.90 168.74 217.70 166.52 221.15 165.45 C 217.49 165.96 213.78 167.52 210.08 166.47 C 208.18 165.03 205.18 164.28 204.36 161.91 C 207.94 158.23 213.85 157.58 218.59 159.36 C 218.89 159.71 219.49 160.43 219.79 160.79 C 228.62 170.47 238.41 179.30 247.39 188.84 C 244.32 191.72 239.55 192.22 235.70 193.82 C 232.00 191.15 228.10 188.77 224.31 186.24 C 223.97 189.18 223.58 192.11 223.12 195.03 C 222.44 196.34 221.77 197.65 221.12 198.98 C 220.48 199.21 219.20 199.68 218.56 199.92 C 218.68 199.35 218.92 198.20 219.05 197.63 C 216.04 198.65 213.05 199.72 210.08 200.83 L 211.17 201.50 C 210.62 201.48 209.53 201.43 208.98 201.41 C 208.75 202.30 208.58 203.19 208.45 204.10 C 207.30 204.33 206.16 204.60 205.04 204.91 C 205.14 204.40 205.35 203.37 205.46 202.85 C 202.12 203.54 198.65 204.28 195.95 206.50 C 195.81 206.59 195.54 206.78 195.40 206.88 C 194.01 208.35 192.15 209.16 190.36 207.87 C 187.50 208.64 184.76 209.78 182.08 211.02 C 181.92 211.08 181.59 211.21 181.43 211.27 C 181.79 211.75 182.51 212.71 182.87 213.19 C 180.97 213.86 179.07 214.51 177.18 215.18 C 177.25 214.46 177.40 213.02 177.48 212.30 C 174.69 213.28 171.89 214.24 169.07 215.11 C 169.85 215.81 170.64 216.51 171.43 217.20 C 170.73 217.37 170.03 217.49 169.34 217.64 C 168.92 217.88 168.09 218.37 167.67 218.62 C 168.72 217.00 165.49 215.41 165.58 217.69 C 165.91 218.02 166.55 218.67 166.88 219.00 C 165.67 219.46 164.45 219.85 163.24 220.29 C 163.32 219.69 163.49 218.48 163.57 217.88 C 161.29 217.54 159.25 216.51 157.13 215.69 C 154.58 215.19 152.25 214.06 150.47 212.14 C 152.36 213.25 154.34 214.19 156.34 215.08 C 156.41 212.62 156.62 210.13 156.21 207.69 C 153.85 205.58 151.01 204.09 148.64 201.99 C 148.80 204.92 148.77 207.86 148.69 210.79 C 147.83 210.85 146.97 210.93 146.12 211.05 C 145.47 210.71 144.82 210.38 144.17 210.08 C 147.45 213.68 151.56 216.40 154.81 220.03 C 154.74 220.74 154.60 222.16 154.53 222.87 C 150.57 219.58 146.81 216.05 142.77 212.85 C 142.70 215.69 142.92 218.59 142.13 221.35 C 141.75 218.63 141.58 215.88 141.53 213.13 C 141.29 215.55 141.52 218.15 140.49 220.42 C 139.81 222.00 137.96 220.69 137.03 220.12 C 137.81 220.23 139.37 220.47 140.16 220.59 C 140.19 217.61 140.11 214.63 140.31 211.66 C 140.72 210.49 141.16 209.32 141.61 208.17 C 143.35 207.41 145.07 206.62 146.81 205.84 C 146.92 206.82 147.03 207.81 147.14 208.79 C 147.30 207.45 147.46 206.10 147.63 204.76 C 144.62 205.84 141.49 207.24 138.21 206.84 C 135.32 205.41 132.85 203.24 130.03 201.67 C 129.53 201.77 128.54 201.97 128.05 202.07 C 127.36 202.15 125.98 202.31 125.29 202.39 C 125.30 204.88 125.33 207.36 125.38 209.85 C 127.52 211.60 129.55 213.49 131.48 215.48 C 130.08 215.20 128.69 214.96 127.31 214.68 C 126.09 213.85 124.88 213.02 123.71 212.13 C 121.91 210.11 120.55 207.75 119.63 205.22 C 120.64 205.89 121.66 206.57 122.69 207.23 C 122.69 205.85 122.69 204.46 122.69 203.08 C 120.33 201.96 117.84 201.16 115.29 200.59 C 112.30 197.93 110.28 194.43 107.94 191.22 C 105.68 187.95 102.66 185.00 101.94 180.93 C 105.91 179.85 109.65 178.14 113.33 176.33 C 117.23 174.25 122.01 175.15 125.81 172.82 C 129.24 170.92 132.95 168.90 137.02 169.31 C 139.80 169.34 142.18 170.88 144.47 172.26 C 144.56 171.72 144.72 170.64 144.80 170.10 C 146.81 171.92 148.64 173.93 150.21 176.15 C 149.96 177.03 149.73 177.92 149.51 178.82 C 153.04 177.60 154.55 173.54 158.05 172.11 C 158.47 172.47 159.33 173.19 159.75 173.56 C 159.72 172.53 159.68 171.50 159.65 170.48 C 156.88 171.40 154.13 172.78 151.15 172.76 C 148.27 171.94 145.69 170.37 142.98 169.15 C 143.17 168.36 143.55 166.78 143.74 165.99 C 146.10 165.23 148.39 164.11 150.88 163.86 C 153.63 164.01 156.42 164.50 159.13 163.74 C 160.60 159.51 165.26 157.96 169.37 158.42 C 171.78 158.66 174.16 158.24 176.43 157.46 C 176.51 156.90 176.66 155.77 176.73 155.21 C 179.25 153.99 181.88 152.99 184.64 152.48 C 185.20 152.60 186.31 152.86 186.86 152.98 C 188.71 153.75 190.50 154.64 192.29 155.52 C 193.37 154.95 194.45 154.37 195.53 153.80 C 196.04 154.18 197.04 154.95 197.54 155.33 C 198.12 155.84 199.26 156.86 199.83 157.36 C 199.34 158.48 198.82 159.59 198.28 160.69 C 198.58 161.76 198.90 162.83 199.19 163.91 C 199.40 159.07 204.41 156.52 208.03 154.22 C 208.17 154.92 208.45 156.33 208.59 157.03 C 208.59 155.89 208.60 154.76 208.62 153.62 C 205.67 154.74 202.58 155.85 199.37 155.44 C 197.41 154.35 195.46 153.24 193.48 152.19 C 193.60 151.40 193.84 149.84 193.96 149.06 M 191.26 160.31 C 187.36 161.07 183.35 161.97 179.69 159.81 C 180.98 161.29 182.97 162.36 183.53 164.36 C 182.96 165.44 182.31 166.48 181.60 167.48 C 182.08 168.38 182.95 168.87 183.97 168.94 C 183.91 167.93 183.80 165.91 183.74 164.90 C 185.95 166.21 186.26 164.41 186.61 162.89 C 187.93 162.16 189.25 161.43 190.57 160.71 C 191.02 162.63 192.36 164.07 193.73 165.38 C 193.13 163.35 192.58 161.31 192.11 159.25 C 191.90 159.52 191.47 160.04 191.26 160.31 M 163.02 165.51 C 164.10 166.58 165.19 167.64 166.27 168.71 C 166.47 170.36 167.49 171.15 169.15 171.12 C 169.52 168.75 171.74 167.65 173.42 166.28 C 169.92 167.40 166.27 167.34 163.02 165.51 M 189.96 168.41 C 190.14 169.64 190.30 170.89 190.49 172.13 L 190.60 169.44 C 192.50 170.84 194.40 172.25 196.25 173.73 C 196.41 174.43 196.74 175.85 196.91 176.56 C 195.20 176.38 193.63 175.53 191.89 175.54 C 191.90 177.56 191.62 179.57 190.03 180.99 C 192.29 181.71 194.32 182.95 196.33 184.19 C 196.57 183.46 197.05 182.00 197.29 181.27 L 197.86 183.16 C 197.69 183.85 197.36 185.22 197.19 185.90 C 197.50 185.91 198.10 185.92 198.40 185.93 C 198.29 184.24 198.26 182.55 198.30 180.86 C 200.12 182.13 201.82 183.57 203.38 185.16 C 203.73 186.96 204.71 188.13 206.68 187.78 C 206.94 186.90 207.20 186.03 207.47 185.15 C 209.39 184.19 211.30 183.18 213.16 182.10 C 210.20 182.60 207.31 184.15 204.27 183.69 C 201.83 182.75 199.62 181.32 197.29 180.17 C 197.30 179.24 197.32 177.38 197.33 176.45 C 199.55 175.45 200.50 172.73 202.55 171.41 C 199.05 172.51 195.39 172.17 192.32 170.11 L 193.67 169.11 C 192.39 169.12 191.07 169.15 189.96 168.41 M 207.35 170.04 C 207.42 171.20 207.49 172.36 207.56 173.53 C 208.94 174.30 210.32 175.09 211.69 175.88 C 211.66 174.80 211.64 173.72 211.62 172.64 C 210.19 171.78 208.77 170.91 207.35 170.04 M 175.30 173.92 C 175.34 174.91 175.39 175.91 175.44 176.91 L 175.59 174.42 C 177.38 175.96 179.64 177.10 180.94 179.12 C 181.50 180.20 182.36 182.27 183.96 181.07 C 184.14 180.52 184.51 179.42 184.69 178.87 C 186.40 177.72 188.25 176.76 190.24 176.16 C 190.34 176.85 190.55 178.24 190.66 178.93 C 190.61 177.73 190.57 176.53 190.52 175.32 C 186.09 177.09 181.01 178.24 176.92 174.94 L 178.71 174.02 C 177.57 174.06 176.43 174.02 175.30 173.92 M 214.11 174.22 C 214.29 175.44 214.46 176.66 214.62 177.88 C 214.81 177.25 215.18 176.00 215.37 175.38 C 217.66 177.15 220.17 178.96 221.05 181.88 C 221.57 181.83 222.62 181.72 223.14 181.66 C 223.31 179.00 228.57 175.35 229.86 178.84 C 229.73 178.22 229.46 176.97 229.32 176.34 C 226.58 176.98 223.85 178.14 221.00 177.89 C 218.48 177.15 216.13 175.89 214.11 174.22 M 126.59 175.85 C 126.91 176.89 127.23 177.93 127.56 178.98 C 127.45 178.39 127.25 177.23 127.14 176.64 C 128.27 176.83 129.39 177.04 130.52 177.26 C 131.27 178.45 132.31 179.42 133.38 180.34 C 133.46 180.91 133.62 182.06 133.70 182.63 C 134.60 182.70 135.51 182.78 136.43 182.86 C 136.25 179.22 140.75 178.86 143.10 177.25 C 140.35 177.50 137.75 178.53 135.02 178.83 C 132.93 178.39 131.07 177.25 129.10 176.49 C 129.03 176.02 128.88 175.07 128.80 174.60 C 128.25 174.91 127.14 175.54 126.59 175.85 M 159.84 181.95 L 160.12 180.63 C 161.29 180.82 162.45 181.02 163.62 181.22 C 164.94 182.78 166.25 184.38 166.85 186.37 C 167.27 186.43 168.10 186.54 168.52 186.59 C 169.39 183.52 172.33 182.07 175.16 181.22 C 175.27 181.90 175.50 183.27 175.62 183.95 C 175.57 182.75 175.53 181.55 175.49 180.35 C 173.04 181.17 170.60 182.09 168.03 182.39 C 165.06 182.32 162.86 180.09 160.60 178.47 C 160.29 179.61 160.03 180.77 159.84 181.95 M 110.26 180.57 C 109.46 181.32 109.38 183.46 110.73 183.62 C 112.23 183.22 112.07 179.76 110.26 180.57 M 174.92 186.01 C 176.72 187.17 178.53 188.33 180.37 189.43 L 180.50 188.47 L 181.51 188.69 L 181.75 186.69 C 183.60 187.97 185.60 189.23 186.90 191.12 C 187.53 192.34 188.17 194.43 190.02 193.50 C 190.21 192.91 190.59 191.73 190.78 191.14 C 192.53 190.16 194.31 189.22 196.11 188.32 C 196.22 188.99 196.43 190.33 196.53 191.00 C 196.55 189.82 196.57 188.65 196.59 187.48 C 193.89 188.50 191.10 189.79 188.15 189.57 C 185.61 188.63 183.25 187.27 180.81 186.09 C 181.10 185.19 181.68 183.38 181.97 182.48 C 180.61 181.65 179.26 180.74 177.72 180.27 C 176.78 182.22 176.88 184.66 174.92 186.01 M 214.53 180.05 C 214.39 182.48 214.27 184.92 214.10 187.35 C 216.66 187.39 219.35 187.26 221.53 188.85 C 221.45 187.25 221.39 185.66 221.29 184.07 C 218.89 182.99 216.68 181.55 214.53 180.05 M 116.52 186.07 C 116.70 188.26 118.10 189.04 120.23 188.67 C 120.30 188.04 120.43 186.79 120.50 186.17 C 122.32 185.16 124.09 183.97 126.12 183.40 C 126.24 184.05 126.48 185.36 126.60 186.01 C 126.59 184.81 126.60 183.61 126.61 182.42 C 124.11 183.28 121.62 184.22 119.01 184.68 C 116.77 184.52 114.86 183.14 112.86 182.26 C 114.02 183.59 115.26 184.84 116.52 186.07 M 128.61 183.17 C 128.02 185.22 131.27 185.37 131.83 183.77 C 132.20 181.96 129.04 181.39 128.61 183.17 M 145.27 184.08 C 145.27 184.84 145.28 186.35 145.29 187.11 C 145.49 186.50 145.90 185.30 146.11 184.70 C 148.50 186.65 151.01 188.67 152.01 191.72 C 152.56 191.64 153.65 191.49 154.19 191.42 C 154.28 190.84 154.45 189.69 154.53 189.12 C 156.36 188.18 158.03 186.65 160.14 186.44 C 160.26 187.07 160.50 188.34 160.62 188.98 C 160.60 187.78 160.59 186.58 160.59 185.38 C 158.09 186.22 155.60 187.18 152.97 187.54 C 150.12 187.19 147.72 185.43 145.27 184.08 M 162.16 185.94 C 161.91 187.73 161.88 189.71 160.34 190.96 L 161.70 192.32 C 160.53 191.93 159.37 191.59 158.20 191.26 C 160.07 193.03 162.08 194.64 164.14 196.19 C 164.56 194.94 164.99 193.70 165.42 192.45 C 167.67 194.25 170.17 196.01 171.23 198.82 C 171.61 199.99 173.17 199.09 174.07 199.29 C 174.13 198.69 174.27 197.50 174.33 196.90 C 176.15 195.92 177.98 194.95 179.84 194.03 C 179.84 194.71 179.86 196.09 179.87 196.77 C 180.09 195.63 180.30 194.49 180.53 193.36 C 177.76 194.13 175.04 195.32 172.15 195.44 C 169.26 194.61 166.37 193.34 164.26 191.13 C 164.34 189.98 164.87 189.03 165.85 188.27 C 164.86 187.13 163.62 186.31 162.16 185.94 M 109.25 188.73 C 109.59 189.33 109.93 189.93 110.28 190.54 C 111.83 190.03 113.37 189.52 114.92 189.01 C 113.46 186.91 111.17 188.03 109.25 188.73 M 198.49 186.55 C 197.19 189.19 198.85 191.36 200.85 192.93 C 202.78 192.05 206.24 192.01 205.44 189.01 C 202.96 188.66 200.94 185.35 198.49 186.55 M 207.48 188.48 C 207.52 189.00 207.59 190.04 207.63 190.56 C 208.99 190.11 210.35 189.66 211.72 189.23 C 211.64 188.74 211.47 187.77 211.38 187.28 C 210.07 187.66 208.78 188.06 207.48 188.48 M 138.05 192.62 C 136.16 192.41 134.43 191.55 132.62 191.02 C 133.72 192.17 134.90 193.22 136.11 194.24 C 136.22 194.86 136.44 196.10 136.55 196.72 C 137.45 196.72 138.34 196.73 139.24 196.73 C 139.30 196.09 139.43 194.80 139.50 194.15 C 141.76 192.97 144.09 191.90 146.27 190.56 C 143.50 191.15 140.85 192.20 138.05 192.62 M 182.26 192.41 L 181.68 192.77 C 183.79 194.29 185.39 197.07 188.04 197.51 C 188.29 196.85 188.77 195.55 189.01 194.90 C 186.95 194.21 185.07 193.10 183.42 191.69 L 182.71 192.12 C 182.73 190.90 182.13 190.16 180.90 189.91 C 179.25 190.41 181.17 192.49 182.26 192.41 M 147.80 191.87 C 147.27 193.26 146.76 194.65 146.28 196.05 C 148.70 195.82 149.45 193.58 147.80 191.87 M 209.69 196.28 C 205.95 197.49 201.79 198.09 198.57 200.46 C 186.48 203.58 174.88 208.43 162.98 212.22 C 162.23 212.28 160.74 212.40 159.99 212.46 C 160.06 214.31 159.81 216.56 162.41 216.33 C 162.46 215.72 162.56 214.51 162.60 213.90 C 175.22 209.59 187.72 204.94 200.20 200.26 C 203.24 199.70 206.16 198.35 209.31 198.53 C 210.87 198.43 212.76 198.90 213.87 197.37 C 216.49 197.76 218.95 196.27 221.43 195.61 C 221.42 194.49 221.41 193.39 221.40 192.28 C 217.50 193.60 213.67 195.17 209.69 196.28 M 111.77 193.35 C 112.78 194.46 113.81 195.56 114.83 196.66 C 115.14 196.46 115.76 196.06 116.07 195.86 C 118.78 196.43 121.00 199.07 121.65 201.74 C 122.25 201.76 123.46 201.81 124.06 201.83 C 124.16 201.20 124.37 199.95 124.47 199.32 C 126.67 198.14 128.92 197.09 131.20 196.07 C 128.09 196.34 125.13 197.63 122.01 197.68 C 118.45 196.55 115.49 194.07 111.77 193.35 M 191.68 193.66 C 191.59 194.23 191.40 195.35 191.31 195.92 C 193.00 195.60 194.78 195.32 196.10 194.08 C 194.70 193.39 193.16 193.60 191.68 193.66 M 196.30 193.28 C 196.83 193.79 196.83 193.79 196.30 193.28 M 139.24 196.73 C 141.86 198.29 144.53 199.76 147.22 201.19 L 147.44 199.88 C 147.67 200.05 148.13 200.40 148.36 200.57 C 148.60 199.93 149.08 198.66 149.31 198.03 C 147.56 197.69 145.81 197.08 144.12 196.42 L 143.58 197.41 C 142.34 196.42 140.68 196.85 139.24 196.73 M 181.43 197.01 C 180.58 198.23 182.43 200.17 183.56 198.97 C 184.38 197.80 182.49 195.77 181.43 197.01 M 150.83 199.51 C 151.87 200.66 152.95 201.80 154.07 202.89 C 154.12 205.91 157.91 206.11 157.77 202.90 C 159.59 201.63 161.58 200.63 163.74 200.11 C 163.72 199.91 163.66 199.50 163.64 199.30 C 159.46 200.76 154.88 202.17 150.83 199.51 M 165.41 198.82 C 165.33 200.86 165.26 202.89 165.21 204.93 C 166.87 204.62 168.54 204.28 170.19 203.88 C 169.30 201.62 167.22 200.27 165.41 198.82 M 175.43 199.57 C 175.39 200.15 175.29 201.31 175.25 201.89 C 176.72 201.26 179.01 201.27 179.02 199.18 C 177.82 199.30 176.62 199.43 175.43 199.57 M 158.03 205.93 C 159.46 207.01 162.70 207.57 162.93 205.07 C 161.28 205.27 159.64 205.55 158.03 205.93 Z" />
<path fill="#444445" opacity="1.00" d=" M 130.22 202.70 L 130.90 203.00 C 131.04 204.17 131.17 205.34 131.30 206.51 C 131.99 205.97 132.64 204.96 133.67 205.29 C 136.37 206.47 137.78 209.20 138.95 211.74 C 135.68 211.72 133.54 208.78 130.91 207.25 C 130.70 205.73 130.47 204.21 130.22 202.70 Z" />
<path fill="#444445" opacity="1.00" d=" M 134.81 220.93 C 136.21 221.56 137.63 222.14 139.04 222.73 C 139.73 222.49 141.10 222.01 141.78 221.77 L 141.07 222.63 C 138.77 223.29 136.40 222.73 134.81 220.93 Z" />
</g>
<g id="#b3b4b7ff">
<path fill="#b3b4b7" opacity="1.00" d=" M 122.78 19.50 C 123.29 19.51 124.31 19.54 124.81 19.55 C 125.51 21.93 126.11 24.34 126.71 26.74 C 132.39 25.45 138.06 24.14 143.72 22.77 C 144.75 25.25 145.69 27.77 146.75 30.24 C 140.44 32.79 133.63 33.63 127.17 35.69 C 125.72 30.29 123.88 24.99 122.78 19.50 Z" />
<path fill="#b3b4b7" opacity="1.00" d=" M 54.62 40.15 C 56.05 40.07 57.76 38.71 59.06 39.86 C 60.12 42.08 60.57 44.56 60.71 47.01 C 60.57 48.16 61.31 50.21 59.66 50.55 C 54.17 52.37 48.43 53.21 42.87 54.78 C 41.55 55.04 40.40 55.76 39.63 56.86 C 38.79 54.03 38.36 51.10 38.14 48.16 C 44.43 46.79 50.68 45.27 56.89 43.62 C 56.14 42.46 55.40 41.29 54.62 40.15 Z" />
<path fill="#b3b4b7" opacity="1.00" d=" M 187.15 40.56 C 187.81 40.54 189.12 40.49 189.78 40.47 L 189.77 40.76 C 189.75 41.59 189.70 43.25 189.68 44.09 C 188.84 42.90 188.02 41.71 187.15 40.56 Z" />
<path fill="#b3b4b7" opacity="1.00" d=" M 144.91 41.78 C 145.72 43.10 146.54 44.42 147.46 45.68 C 148.21 46.14 148.99 46.58 149.78 46.99 C 147.64 47.31 144.23 50.13 143.96 46.42 C 141.56 46.54 139.14 46.72 136.83 47.41 C 114.43 53.76 91.98 59.92 69.58 66.25 C 67.51 66.80 65.41 67.19 63.31 67.57 L 63.97 66.18 C 90.10 59.01 116.15 51.52 142.28 44.34 C 143.65 44.05 144.53 43.19 144.91 41.78 Z" />
<path fill="#b3b4b7" opacity="1.00" d=" M 182.28 42.82 C 183.03 42.41 184.51 41.61 185.25 41.21 C 187.27 42.67 187.71 45.07 187.70 47.41 C 186.69 47.54 184.65 47.78 183.64 47.90 C 183.18 46.21 182.73 44.51 182.28 42.82 Z" />
<path fill="#b3b4b7" opacity="1.00" d=" M 65.76 59.86 C 86.79 54.67 107.97 50.03 129.07 45.14 L 129.26 46.35 C 113.91 50.66 98.55 54.92 83.14 59.01 C 77.53 60.45 72.02 62.41 66.23 63.00 C 66.11 62.22 65.88 60.64 65.76 59.86 Z" />
<path fill="#b3b4b7" opacity="1.00" d=" M 174.71 53.36 C 175.56 51.89 177.01 50.89 178.21 49.72 L 178.28 50.24 C 178.18 52.13 178.09 54.03 177.95 55.91 C 177.56 58.45 176.18 60.57 173.74 61.53 C 173.94 58.80 173.87 55.99 174.71 53.36 Z" />
<path fill="#b3b4b7" opacity="1.00" d=" M 80.79 66.32 C 97.69 61.01 114.90 56.73 131.95 51.95 C 133.65 52.25 135.34 52.65 137.01 53.10 C 136.00 53.70 134.99 54.30 133.99 54.90 C 133.99 55.15 133.98 55.66 133.98 55.92 C 133.98 59.57 133.79 63.21 133.58 66.86 C 134.49 66.54 136.30 65.92 137.21 65.60 C 137.35 63.02 137.13 60.45 137.00 57.87 C 137.20 57.54 137.61 56.88 137.82 56.55 L 137.83 57.91 C 137.84 60.53 137.76 63.16 137.72 65.78 C 140.40 65.13 143.07 64.43 145.69 63.56 C 148.39 66.26 150.94 69.76 155.00 70.35 C 163.00 71.98 170.86 74.22 178.92 75.58 C 183.79 76.27 187.91 79.09 192.01 81.61 C 182.60 81.43 173.03 81.64 163.89 84.07 C 164.67 85.52 165.47 86.96 166.27 88.41 C 165.94 89.44 165.61 90.47 165.28 91.51 C 167.10 92.21 169.02 92.85 171.00 92.48 C 177.33 91.62 183.74 91.30 190.01 90.01 C 194.20 89.11 198.50 89.09 202.76 89.36 C 202.77 91.03 203.25 92.84 202.41 94.40 C 200.77 97.84 196.83 99.07 193.62 100.56 C 186.14 103.47 178.65 106.34 171.40 109.81 C 171.50 111.73 171.60 113.66 171.70 115.59 C 157.00 119.86 142.48 124.78 127.83 129.23 C 121.50 131.06 115.34 133.49 108.85 134.77 C 109.53 132.38 110.30 129.93 111.96 128.01 C 114.44 124.71 118.58 123.53 122.23 122.03 C 131.49 118.72 140.57 114.92 149.83 111.60 C 161.53 106.93 173.86 104.15 185.86 100.40 C 190.19 98.81 194.80 97.34 198.23 94.12 C 199.22 93.28 199.17 91.88 199.54 90.74 C 193.25 90.71 187.41 93.15 181.40 94.61 C 166.89 97.73 153.16 103.57 138.72 106.93 C 133.21 109.14 127.11 109.21 121.75 111.83 C 116.56 113.92 110.90 113.35 105.46 113.79 C 100.91 115.17 96.55 117.09 92.01 118.49 C 86.40 114.93 80.38 112.00 75.11 107.91 C 70.58 104.46 65.74 101.11 60.04 100.03 C 60.31 104.67 63.49 108.24 66.63 111.35 C 70.31 115.18 75.09 117.89 78.11 122.36 C 69.40 117.53 62.70 109.78 54.08 104.91 C 53.37 104.91 51.95 104.91 51.24 104.91 L 49.90 105.19 C 49.41 109.77 49.34 114.42 49.73 119.01 C 49.92 120.98 51.43 122.45 52.66 123.86 C 62.68 131.66 72.98 139.13 83.01 146.93 C 85.98 149.31 89.31 151.18 92.45 153.33 C 90.69 157.40 91.98 161.78 92.38 165.98 C 92.68 168.50 92.97 171.30 94.89 173.18 C 97.30 174.60 99.33 170.98 99.35 168.87 C 99.48 164.49 101.26 159.99 99.75 155.68 C 104.78 155.75 109.41 153.66 114.14 152.28 C 130.03 147.29 146.03 142.66 161.89 137.59 C 161.36 144.40 157.60 150.31 153.93 155.86 C 152.27 158.40 150.00 160.64 147.04 161.56 C 132.83 166.54 118.52 171.21 104.24 175.97 C 101.66 176.85 99.52 178.61 97.04 179.70 C 94.04 179.79 91.10 178.21 89.05 176.10 C 87.33 172.49 86.88 168.08 83.54 165.44 C 72.36 155.93 60.68 147.01 49.53 137.46 C 45.41 133.95 47.57 127.96 45.08 123.63 C 46.39 122.38 47.89 121.01 47.57 119.00 C 47.44 112.05 47.78 105.10 48.55 98.20 C 49.21 94.92 51.12 91.97 53.65 89.81 C 59.42 84.80 67.57 85.03 74.40 82.29 C 74.24 79.52 74.06 76.76 73.85 74.00 C 74.17 74.17 74.80 74.51 75.12 74.69 C 75.02 77.19 74.82 79.69 74.66 82.20 C 76.31 81.89 77.96 81.59 79.61 81.28 C 79.56 79.56 79.51 77.84 79.44 76.12 C 80.49 75.65 81.53 75.19 82.58 74.72 C 83.24 72.62 81.90 68.65 84.61 68.05 C 86.08 69.46 87.99 70.15 89.96 70.47 C 86.38 71.71 87.50 75.93 86.99 78.85 C 88.03 78.66 90.10 78.28 91.14 78.09 C 91.53 74.94 91.64 71.78 91.37 68.62 C 91.84 70.08 92.33 71.54 92.83 73.00 C 96.09 72.43 95.49 68.84 95.95 66.36 C 98.65 66.05 101.36 66.26 104.06 66.57 L 103.48 65.35 C 104.29 66.41 104.93 67.58 105.61 68.72 C 106.12 68.71 107.12 68.69 107.63 68.68 C 108.00 66.03 107.95 63.35 107.50 60.72 C 105.00 61.19 102.48 61.61 99.96 62.02 C 100.72 62.72 101.48 63.42 102.24 64.13 C 101.06 64.06 99.89 63.99 98.72 63.91 C 92.66 61.98 86.92 66.47 80.79 66.32 M 126.68 57.07 C 125.13 57.26 123.60 57.54 122.09 57.93 C 123.79 60.22 126.67 59.89 129.18 59.67 L 128.21 57.99 C 131.02 58.67 129.13 65.64 132.59 62.96 C 133.31 60.40 132.94 57.73 132.75 55.12 C 130.64 55.43 128.25 55.37 126.68 57.07 M 113.50 59.99 C 112.27 60.63 111.01 61.21 109.75 61.81 C 111.79 63.33 114.32 63.44 116.77 63.31 L 116.05 62.02 C 117.00 62.89 117.36 64.03 117.14 65.44 C 116.93 64.94 116.50 63.94 116.29 63.45 C 115.51 63.62 113.94 63.96 113.16 64.13 C 112.38 66.83 112.25 69.65 112.53 72.44 C 114.15 72.00 115.76 71.55 117.38 71.11 C 117.36 70.32 117.31 68.74 117.29 67.94 C 118.28 67.51 119.36 67.22 120.25 66.58 C 121.00 63.88 120.76 61.05 120.61 58.30 C 118.13 58.35 115.47 58.19 113.50 59.99 M 121.38 58.85 C 121.34 62.49 121.32 66.12 121.17 69.76 C 122.00 69.65 123.67 69.44 124.50 69.33 C 123.76 65.86 125.96 60.06 121.38 58.85 M 125.47 60.70 C 125.18 63.40 124.91 66.11 124.72 68.82 C 126.38 68.62 128.05 68.41 129.72 68.20 C 129.62 65.51 129.37 62.84 129.08 60.17 C 128.18 60.30 126.38 60.57 125.47 60.70 M 108.89 62.14 C 108.89 65.86 108.61 69.57 108.49 73.28 C 109.74 72.93 110.98 72.57 112.22 72.21 C 111.84 69.15 111.94 66.00 111.06 63.03 C 110.52 62.81 109.43 62.37 108.89 62.14 M 97.25 67.08 C 95.12 69.44 96.42 72.84 96.35 75.70 C 96.20 75.36 95.91 74.67 95.76 74.32 L 95.63 75.96 C 94.75 75.81 93.00 75.50 92.12 75.35 C 92.05 76.49 91.98 77.64 91.90 78.79 C 92.06 74.88 96.66 76.76 99.20 76.15 C 99.15 73.52 99.13 70.87 99.48 68.26 C 98.98 67.32 98.23 66.93 97.25 67.08 M 100.32 68.00 C 99.84 70.52 99.83 73.09 99.76 75.65 C 101.48 75.24 103.19 74.80 104.89 74.31 C 104.53 71.84 104.19 69.37 103.86 66.90 C 102.70 67.27 101.28 67.16 100.32 68.00 M 83.67 70.52 C 83.48 73.62 83.44 76.74 83.27 79.85 C 84.12 79.68 85.81 79.36 86.65 79.20 C 86.95 76.30 86.63 73.38 86.34 70.50 C 86.01 70.31 85.33 69.94 85.00 69.75 C 84.66 69.94 84.00 70.32 83.67 70.52 Z" />
<path fill="#b3b4b7" opacity="1.00" d=" M 61.11 76.69 C 61.88 76.73 63.41 76.81 64.18 76.85 C 63.77 77.33 62.96 78.30 62.55 78.78 C 62.22 80.64 61.84 82.49 61.41 84.33 C 61.42 81.78 61.36 79.23 61.11 76.69 Z" />
<path fill="#b3b4b7" opacity="1.00" d=" M 41.45 85.88 C 41.96 90.56 41.00 95.21 40.79 99.88 C 37.97 103.02 36.53 106.99 35.54 111.03 C 35.31 104.21 35.05 97.34 36.18 90.58 C 36.33 95.10 36.00 99.62 36.37 104.14 C 36.80 101.20 37.00 98.23 37.42 95.30 C 37.69 91.63 42.41 89.94 41.45 85.88 Z" />
<path fill="#b3b4b7" opacity="1.00" d=" M 9.83 87.88 C 10.63 87.84 12.22 87.75 13.01 87.71 C 13.76 88.77 14.51 89.82 15.25 90.88 C 17.02 90.62 18.93 90.58 20.37 89.35 C 22.30 90.80 22.77 93.15 22.72 95.44 C 21.07 95.89 19.43 96.34 17.78 96.76 C 16.83 98.09 15.85 99.41 14.84 100.70 C 14.64 98.44 14.91 96.09 14.23 93.90 C 13.20 91.60 11.39 89.80 9.83 87.88 Z" />
<path fill="#b3b4b7" opacity="1.00" d=" M 4.52 94.22 C 6.43 93.70 8.35 93.20 10.27 92.70 C 10.38 93.37 10.61 94.73 10.73 95.40 C 10.01 95.50 8.57 95.70 7.85 95.80 C 7.67 96.43 7.32 97.69 7.14 98.32 L 6.14 97.34 C 5.61 96.29 5.13 95.22 4.52 94.22 Z" />
<path fill="#b3b4b7" opacity="1.00" d=" M 174.27 122.22 C 180.41 120.18 186.64 118.38 192.88 116.63 C 194.08 117.56 195.29 118.50 196.49 119.44 C 189.23 122.05 181.83 124.31 174.39 126.38 C 174.35 124.99 174.31 123.61 174.27 122.22 Z" />
<path fill="#b3b4b7" opacity="1.00" d=" M 58.65 123.02 C 68.70 129.53 78.00 137.13 87.62 144.25 C 89.20 145.45 91.04 146.21 92.92 146.80 C 93.38 147.36 93.83 147.92 94.28 148.49 C 92.90 148.04 91.53 147.57 90.16 147.11 L 90.25 150.23 C 84.81 146.21 79.79 141.66 74.24 137.78 C 69.70 134.25 64.78 131.18 60.54 127.27 C 59.89 125.86 59.27 124.44 58.65 123.02 Z" />
<path fill="#b3b4b7" opacity="1.00" d=" M 101.94 144.36 C 115.92 140.48 129.73 136.01 143.57 131.64 C 143.84 132.64 144.37 134.62 144.64 135.61 C 130.05 140.35 115.25 144.46 100.73 149.43 C 101.71 149.55 103.67 149.78 104.65 149.89 C 102.68 150.89 100.52 150.92 98.37 150.70 C 98.40 150.25 98.44 149.35 98.47 148.90 C 100.58 148.15 104.07 147.25 101.94 144.36 Z" />
<path fill="#b3b4b7" opacity="1.00" d=" M 40.50 134.29 C 42.00 133.55 43.16 134.93 44.30 135.69 C 56.45 145.55 68.58 155.42 80.75 165.24 C 83.40 167.41 85.99 170.41 85.82 174.05 C 85.93 180.45 86.06 186.84 85.99 193.24 C 84.65 193.02 83.21 192.87 82.25 191.78 C 69.63 180.73 57.00 169.68 44.36 158.65 C 41.50 155.93 39.76 151.91 40.02 147.94 C 40.30 143.39 40.34 138.84 40.50 134.29 M 58.06 150.00 C 61.89 154.78 66.61 158.75 70.78 163.22 C 75.52 167.72 79.88 172.60 84.74 176.97 C 84.69 174.55 84.80 171.88 83.05 169.96 C 79.47 165.81 74.77 162.83 70.59 159.33 C 66.40 156.23 62.72 152.40 58.06 150.00 Z" />
<path fill="#b3b4b7" opacity="1.00" d=" M 199.37 155.44 C 202.58 155.85 205.67 154.74 208.62 153.62 C 208.60 154.76 208.59 155.89 208.59 157.03 C 208.45 156.33 208.17 154.92 208.03 154.22 C 204.41 156.52 199.40 159.07 199.19 163.91 C 198.90 162.83 198.58 161.76 198.28 160.69 C 198.82 159.59 199.34 158.48 199.83 157.36 C 199.26 156.86 198.12 155.84 197.54 155.33 C 198.00 155.36 198.91 155.42 199.37 155.44 Z" />
<path fill="#b3b4b7" opacity="1.00" d=" M 191.26 160.31 C 191.47 160.04 191.90 159.52 192.11 159.25 C 192.58 161.31 193.13 163.35 193.73 165.38 C 192.36 164.07 191.02 162.63 190.57 160.71 C 189.25 161.43 187.93 162.16 186.61 162.89 C 186.26 164.41 185.95 166.21 183.74 164.90 C 183.80 165.91 183.91 167.93 183.97 168.94 C 182.95 168.87 182.08 168.38 181.60 167.48 C 182.31 166.48 182.96 165.44 183.53 164.36 C 182.97 162.36 180.98 161.29 179.69 159.81 C 183.35 161.97 187.36 161.07 191.26 160.31 Z" />
<path fill="#b3b4b7" opacity="1.00" d=" M 220.35 158.66 C 225.76 163.10 230.62 168.15 235.70 172.96 C 236.25 173.03 237.35 173.19 237.90 173.27 C 239.64 173.99 240.73 175.67 242.07 176.92 C 245.24 180.41 248.78 183.52 252.05 186.90 C 252.13 188.52 252.19 190.14 252.29 191.76 C 251.80 192.04 250.84 192.60 250.35 192.87 C 248.97 193.75 247.64 194.72 246.33 195.69 C 246.44 200.00 246.41 204.31 246.41 208.62 C 247.15 208.60 248.65 208.56 249.39 208.54 C 247.93 209.15 246.49 209.80 245.00 210.34 C 243.41 210.53 241.73 209.95 241.92 208.05 C 241.50 204.36 241.79 200.63 241.80 196.93 C 232.85 198.88 224.79 203.61 215.91 205.80 C 213.96 205.57 211.95 205.34 210.10 206.17 C 191.68 213.19 173.08 219.74 154.60 226.63 C 147.50 229.62 139.09 232.83 131.83 228.40 C 133.00 227.72 134.17 227.05 135.35 226.39 C 142.03 229.42 148.61 225.41 154.85 223.29 L 154.53 222.87 C 154.60 222.16 154.74 220.74 154.81 220.03 L 156.03 221.39 C 158.47 222.51 160.93 221.00 163.24 220.29 C 164.45 219.85 165.67 219.46 166.88 219.00 L 167.67 218.62 C 168.09 218.37 168.92 217.88 169.34 217.64 C 170.03 217.49 170.73 217.37 171.43 217.20 C 173.36 216.59 175.27 215.89 177.18 215.18 C 179.07 214.51 180.97 213.86 182.87 213.19 C 182.51 212.71 181.79 211.75 181.43 211.27 C 181.59 211.21 181.92 211.08 182.08 211.02 C 182.80 211.35 184.24 212.00 184.96 212.33 C 188.11 210.96 191.35 209.72 194.80 209.37 L 193.71 209.06 L 195.35 208.38 L 195.40 206.88 C 195.54 206.78 195.81 206.59 195.95 206.50 C 199.11 207.74 202.11 205.97 205.04 204.91 C 206.16 204.60 207.30 204.33 208.45 204.10 C 209.97 203.91 211.35 203.24 212.61 202.40 C 214.54 201.45 216.56 200.70 218.56 199.92 C 219.20 199.68 220.48 199.21 221.12 198.98 C 226.00 197.32 230.79 195.41 235.70 193.82 C 239.55 192.22 244.32 191.72 247.39 188.84 C 238.41 179.30 228.62 170.47 219.79 160.79 L 220.35 158.66 Z" />
<path fill="#b3b4b7" opacity="1.00" d=" M 210.08 166.47 C 213.78 167.52 217.49 165.96 221.15 165.45 C 217.70 166.52 214.90 168.74 212.40 171.27 C 211.36 169.48 210.23 167.74 208.91 166.15 C 209.20 166.23 209.79 166.39 210.08 166.47 Z" />
<path fill="#b3b4b7" opacity="1.00" d=" M 163.02 165.51 C 166.27 167.34 169.92 167.40 173.42 166.28 C 171.74 167.65 169.52 168.75 169.15 171.12 C 167.49 171.15 166.47 170.36 166.27 168.71 C 165.19 167.64 164.10 166.58 163.02 165.51 Z" />
<path fill="#b3b4b7" opacity="1.00" d=" M 189.96 168.41 C 191.07 169.15 192.39 169.12 193.67 169.11 L 192.32 170.11 C 195.39 172.17 199.05 172.51 202.55 171.41 C 200.50 172.73 199.55 175.45 197.33 176.45 L 196.91 176.56 C 196.74 175.85 196.41 174.43 196.25 173.73 C 194.40 172.25 192.50 170.84 190.60 169.44 L 190.49 172.13 C 190.30 170.89 190.14 169.64 189.96 168.41 Z" />
<path fill="#b3b4b7" opacity="1.00" d=" M 175.30 173.92 C 176.43 174.02 177.57 174.06 178.71 174.02 L 176.92 174.94 C 181.01 178.24 186.09 177.09 190.52 175.32 C 190.57 176.53 190.61 177.73 190.66 178.93 C 190.55 178.24 190.34 176.85 190.24 176.16 C 188.25 176.76 186.40 177.72 184.69 178.87 C 184.51 179.42 184.14 180.52 183.96 181.07 C 182.36 182.27 181.50 180.20 180.94 179.12 C 179.64 177.10 177.38 175.96 175.59 174.42 L 175.44 176.91 C 175.39 175.91 175.34 174.91 175.30 173.92 Z" />
<path fill="#b3b4b7" opacity="1.00" d=" M 214.11 174.22 C 216.13 175.89 218.48 177.15 221.00 177.89 C 223.85 178.14 226.58 176.98 229.32 176.34 C 229.46 176.97 229.73 178.22 229.86 178.84 C 228.57 175.35 223.31 179.00 223.14 181.66 C 222.62 181.72 221.57 181.83 221.05 181.88 C 220.17 178.96 217.66 177.15 215.37 175.38 C 215.18 176.00 214.81 177.25 214.62 177.88 C 214.46 176.66 214.29 175.44 214.11 174.22 Z" />
<path fill="#b3b4b7" opacity="1.00" d=" M 126.59 175.85 C 127.14 175.54 128.25 174.91 128.80 174.60 C 128.88 175.07 129.03 176.02 129.10 176.49 C 131.07 177.25 132.93 178.39 135.02 178.83 C 137.75 178.53 140.35 177.50 143.10 177.25 C 140.75 178.86 136.25 179.22 136.43 182.86 C 135.51 182.78 134.60 182.70 133.70 182.63 C 133.62 182.06 133.46 180.91 133.38 180.34 C 132.31 179.42 131.27 178.45 130.52 177.26 C 129.39 177.04 128.27 176.83 127.14 176.64 C 127.25 177.23 127.45 178.39 127.56 178.98 C 127.23 177.93 126.91 176.89 126.59 175.85 Z" />
<path fill="#b3b4b7" opacity="1.00" d=" M 159.84 181.95 C 160.03 180.77 160.29 179.61 160.60 178.47 C 162.86 180.09 165.06 182.32 168.03 182.39 C 170.60 182.09 173.04 181.17 175.49 180.35 C 175.53 181.55 175.57 182.75 175.62 183.95 C 175.50 183.27 175.27 181.90 175.16 181.22 C 172.33 182.07 169.39 183.52 168.52 186.59 C 168.10 186.54 167.27 186.43 166.85 186.37 C 166.25 184.38 164.94 182.78 163.62 181.22 C 162.45 181.02 161.29 180.82 160.12 180.63 L 159.84 181.95 Z" />
<path fill="#b3b4b7" opacity="1.00" d=" M 197.29 180.17 C 199.62 181.32 201.83 182.75 204.27 183.69 C 207.31 184.15 210.20 182.60 213.16 182.10 C 211.30 183.18 209.39 184.19 207.47 185.15 C 207.20 186.03 206.94 186.90 206.68 187.78 C 204.71 188.13 203.73 186.96 203.38 185.16 C 201.82 183.57 200.12 182.13 198.30 180.86 C 198.26 182.55 198.29 184.24 198.40 185.93 C 198.10 185.92 197.50 185.91 197.19 185.90 C 197.36 185.22 197.69 183.85 197.86 183.16 L 197.29 181.27 C 197.29 180.99 197.29 180.44 197.29 180.17 Z" />
<path fill="#b3b4b7" opacity="1.00" d=" M 116.52 186.07 C 115.26 184.84 114.02 183.59 112.86 182.26 C 114.86 183.14 116.77 184.52 119.01 184.68 C 121.62 184.22 124.11 183.28 126.61 182.42 C 126.60 183.61 126.59 184.81 126.60 186.01 C 126.48 185.36 126.24 184.05 126.12 183.40 C 124.09 183.97 122.32 185.16 120.50 186.17 C 120.43 186.79 120.30 188.04 120.23 188.67 C 118.10 189.04 116.70 188.26 116.52 186.07 Z" />
<path fill="#b3b4b7" opacity="1.00" d=" M 145.27 184.08 C 147.72 185.43 150.12 187.19 152.97 187.54 C 155.60 187.18 158.09 186.22 160.59 185.38 C 160.59 186.58 160.60 187.78 160.62 188.98 C 160.50 188.34 160.26 187.07 160.14 186.44 C 158.03 186.65 156.36 188.18 154.53 189.12 C 154.45 189.69 154.28 190.84 154.19 191.42 C 153.65 191.49 152.56 191.64 152.01 191.72 C 151.01 188.67 148.50 186.65 146.11 184.70 C 145.90 185.30 145.49 186.50 145.29 187.11 C 145.28 186.35 145.27 184.84 145.27 184.08 Z" />
<path fill="#b3b4b7" opacity="1.00" d=" M 180.81 186.09 C 183.25 187.27 185.61 188.63 188.15 189.57 C 191.10 189.79 193.89 188.50 196.59 187.48 C 196.57 188.65 196.55 189.82 196.53 191.00 C 196.43 190.33 196.22 188.99 196.11 188.32 C 194.31 189.22 192.53 190.16 190.78 191.14 C 190.59 191.73 190.21 192.91 190.02 193.50 C 188.17 194.43 187.53 192.34 186.90 191.12 C 185.60 189.23 183.60 187.97 181.75 186.69 L 181.51 188.69 L 180.50 188.47 C 180.58 187.88 180.73 186.69 180.81 186.09 Z" />
<path fill="#b3b4b7" opacity="1.00" d=" M 109.25 188.73 C 111.17 188.03 113.46 186.91 114.92 189.01 C 113.37 189.52 111.83 190.03 110.28 190.54 C 109.93 189.93 109.59 189.33 109.25 188.73 Z" />
<path fill="#b3b4b7" opacity="1.00" d=" M 138.05 192.62 C 140.85 192.20 143.50 191.15 146.27 190.56 C 144.09 191.90 141.76 192.97 139.50 194.15 C 139.43 194.80 139.30 196.09 139.24 196.73 C 138.34 196.73 137.45 196.72 136.55 196.72 C 136.44 196.10 136.22 194.86 136.11 194.24 C 134.90 193.22 133.72 192.17 132.62 191.02 C 134.43 191.55 136.16 192.41 138.05 192.62 Z" />
<path fill="#b3b4b7" opacity="1.00" d=" M 158.20 191.26 C 159.37 191.59 160.53 191.93 161.70 192.32 C 162.53 192.82 163.35 193.33 164.19 193.84 C 164.20 193.16 164.24 191.81 164.26 191.13 C 166.37 193.34 169.26 194.61 172.15 195.44 C 175.04 195.32 177.76 194.13 180.53 193.36 C 180.30 194.49 180.09 195.63 179.87 196.77 C 179.86 196.09 179.84 194.71 179.84 194.03 C 177.98 194.95 176.15 195.92 174.33 196.90 C 174.27 197.50 174.13 198.69 174.07 199.29 C 173.17 199.09 171.61 199.99 171.23 198.82 C 170.17 196.01 167.67 194.25 165.42 192.45 C 164.99 193.70 164.56 194.94 164.14 196.19 C 162.08 194.64 160.07 193.03 158.20 191.26 Z" />
<path fill="#b3b4b7" opacity="1.00" d=" M 209.69 196.28 C 213.67 195.17 217.50 193.60 221.40 192.28 C 221.41 193.39 221.42 194.49 221.43 195.61 C 218.95 196.27 216.49 197.76 213.87 197.37 C 212.48 197.00 211.10 196.59 209.69 196.28 Z" />
<path fill="#b3b4b7" opacity="1.00" d=" M 111.77 193.35 C 115.49 194.07 118.45 196.55 122.01 197.68 C 125.13 197.63 128.09 196.34 131.20 196.07 C 128.92 197.09 126.67 198.14 124.47 199.32 C 124.37 199.95 124.16 201.20 124.06 201.83 C 123.46 201.81 122.25 201.76 121.65 201.74 C 121.00 199.07 118.78 196.43 116.07 195.86 C 115.76 196.06 115.14 196.46 114.83 196.66 C 113.81 195.56 112.78 194.46 111.77 193.35 Z" />
<path fill="#b3b4b7" opacity="1.00" d=" M 144.12 196.42 C 145.81 197.08 147.56 197.69 149.31 198.03 C 149.08 198.66 148.60 199.93 148.36 200.57 C 148.13 200.40 147.67 200.05 147.44 199.88 C 146.15 199.06 144.88 198.20 143.58 197.41 L 144.12 196.42 Z" />
<path fill="#b3b4b7" opacity="1.00" d=" M 150.83 199.51 C 154.88 202.17 159.46 200.76 163.64 199.30 C 163.66 199.50 163.72 199.91 163.74 200.11 C 161.58 200.63 159.59 201.63 157.77 202.90 C 157.91 206.11 154.12 205.91 154.07 202.89 C 152.95 201.80 151.87 200.66 150.83 199.51 Z" />
<path fill="#b3b4b7" opacity="1.00" d=" M 128.05 202.07 C 128.54 201.97 129.53 201.77 130.03 201.67 C 132.85 203.24 135.32 205.41 138.21 206.84 C 141.49 207.24 144.62 205.84 147.63 204.76 C 147.46 206.10 147.30 207.45 147.14 208.79 C 147.03 207.81 146.92 206.82 146.81 205.84 C 145.07 206.62 143.35 207.41 141.61 208.17 C 141.16 209.32 140.72 210.49 140.31 211.66 C 139.97 211.68 139.29 211.72 138.95 211.74 C 137.78 209.20 136.37 206.47 133.67 205.29 C 132.64 204.96 131.99 205.97 131.30 206.51 C 131.17 205.34 131.04 204.17 130.90 203.00 L 130.22 202.70 C 129.68 202.54 128.59 202.22 128.05 202.07 Z" />
<path fill="#b3b4b7" opacity="1.00" d=" M 146.12 211.05 C 146.97 210.93 147.83 210.85 148.69 210.79 C 149.14 211.13 150.03 211.81 150.47 212.14 C 152.25 214.06 154.58 215.19 157.13 215.69 L 157.09 216.08 C 156.85 216.31 156.36 216.79 156.12 217.02 C 151.95 217.12 149.41 213.01 146.12 211.05 Z" />
<path fill="#b3b4b7" opacity="1.00" d=" M 141.53 213.13 C 141.58 215.88 141.75 218.63 142.13 221.35 L 141.78 221.77 C 141.10 222.01 139.73 222.49 139.04 222.73 C 137.63 222.14 136.21 221.56 134.81 220.93 C 132.29 218.86 129.91 216.64 127.31 214.68 C 128.69 214.96 130.08 215.20 131.48 215.48 C 133.28 217.07 135.08 218.69 137.03 220.12 C 137.96 220.69 139.81 222.00 140.49 220.42 C 141.52 218.15 141.29 215.55 141.53 213.13 Z" />
<path fill="#b3b4b7" opacity="1.00" d=" M 133.72 231.87 C 135.30 232.27 136.89 232.62 138.48 232.97 C 138.81 237.48 138.76 242.00 138.53 246.51 C 137.13 246.18 135.75 245.81 134.37 245.40 C 133.34 240.96 133.43 236.39 133.72 231.87 Z" />
</g>
</svg>
